<?xml version="1.0" encoding="utf-8"?>
<!DOCTYPE svg PUBLIC "-//W3C//DTD SVG 1.1//EN" "http://www.w3.org/Graphics/SVG/1.1/DTD/svg11.dtd">
<svg version="1.1" id="Layer_1" xmlns="http://www.w3.org/2000/svg" xmlns:xlink="http://www.w3.org/1999/xlink" x="0px" y="0px"
	 width="116.8125px" height="119.5112px" viewBox="-0.0002 0 116.8125 119.5112"
	 style="enable-background:new -0.0002 0 116.8125 119.5112;" xml:space="preserve">
<path d="M108.4861,9.7036c-5.4336-6.106-12.3613-9.2021-20.5938-9.2021c-10.6133,0-20.4746,7.3325-29.3257,21.8022
	C50.2004,7.502,40.6023,0,30.0237,0C21.9475,0,14.8806,3.1152,9.0208,9.2583C3.1809,15.3765,0.22,22.7612,0.22,31.2075
	c0,7.3354,1.5664,14.0811,4.6567,20.0474C7.9211,57.1416,13.28,63.8374,20.804,71.1567
	c12.4062,11.9453,22.6392,24.4521,30.4175,37.1729l6.3657,10.3438l0.5605,0.9102l0.6523-0.8477l0.8696-1.1318
	c5.1621-6.7236,8.1016-10.6221,8.9863-11.917l5.418-8.0234c6.7793-10.0088,13.7754-18.3057,20.7891-24.6602l7.9121-7.1133
	c4.1211-3.6309,7.4961-8.585,10.0273-14.7207c2.5156-6.1001,3.7891-12.3105,3.7891-18.4585
	C116.5916,23.4917,113.865,15.7515,108.4861,9.7036z M29.0198,8.1558c10.1206,0,19.5166,9.1147,27.9282,27.0903l0.8594,1.8379
	l0.645,1.3789l0.6821-1.3608l0.9102-1.8135C69.1111,17.2188,78.5134,8.0566,87.9919,8.0566c5.8086,0,10.7734,2.269,14.7617,6.7441
	c4.0371,4.5352,6.084,10.2236,6.084,16.9072c0,6.2515-1.291,12.0171-3.834,17.1357c-2.5664,5.1646-6.6855,10.3052-12.2441,15.2788
	c-8.957,8.0166-17.9922,18.7852-26.8516,32.0059c-1.6465,2.3848-4.0137,5.7783-7.2183,10.3486
	c-3.4395-6.1748-7.0308-11.5459-10.6831-15.9795l-6.2153-7.7207c-5.0337-6.1738-9.5996-11.2832-13.5752-15.1924l-6.3193-6.1211
	C12.7258,52.5522,8.0754,42.3384,8.0754,31.106c0-6.542,2.04-12.0713,6.063-16.4341C18.1238,10.3481,23.1301,8.1558,29.0198,8.1558z
	"/>
</svg>
