<?xml version="1.0" encoding="utf-8"?>
<!-- Generator: Adobe Illustrator 16.0.0, SVG Export Plug-In . SVG Version: 6.00 Build 0)  -->
<!DOCTYPE svg PUBLIC "-//W3C//DTD SVG 1.1//EN" "http://www.w3.org/Graphics/SVG/1.1/DTD/svg11.dtd">
<svg version="1.1" id="Layer_1" xmlns="http://www.w3.org/2000/svg" xmlns:xlink="http://www.w3.org/1999/xlink" x="0px" y="0px"
	 width="116.812px" height="119.511px" viewBox="0 0 116.812 119.511" enable-background="new 0 0 116.812 119.511"
	 xml:space="preserve">
<g>
	<path d="M108.761,9.614C103.386,3.573,96.53,0.51,88.385,0.51c-10.782,0-20.815,7.706-29.841,22.912
		C50.031,7.877,40.283,0,29.551,0c-7.998,0-15,3.089-20.811,9.18C2.94,15.257,0,22.591,0,30.978c0,7.336,1.564,14.078,4.65,20.037
		c3.059,5.914,8.458,12.656,16.05,20.042c12.657,12.187,23.101,24.95,31.042,37.938l6.471,10.515l0.884-1.151
		c5.232-6.814,8.211-10.764,9.112-12.081l5.505-8.156c6.926-10.222,14.078-18.704,21.254-25.207l8.047-7.233
		c4.105-3.618,7.471-8.562,10.002-14.695c2.519-6.11,3.796-12.327,3.796-18.48C116.812,23.324,114.104,15.622,108.761,9.614z
		 M27.187,68.497l-6.421-6.219C11.291,53.071,6.486,42.506,6.486,30.875c0-6.845,2.141-12.638,6.363-17.217
		c4.2-4.556,9.476-6.866,15.681-6.866c10.605,0,20.388,9.412,29.073,27.974l0.874,1.869l0.925-1.844
		c9.356-18.646,19.142-28.1,29.084-28.1c6.129,0,11.366,2.392,15.567,7.108c4.23,4.751,6.376,10.703,6.376,17.688
		c0,6.474-1.337,12.447-3.975,17.755c-2.652,5.336-6.898,10.638-12.62,15.76c-9.06,8.107-18.206,19.011-27.177,32.398
		c-1.814,2.628-4.494,6.467-8.038,11.517c-3.654-6.686-7.476-12.463-11.364-17.183l-6.325-7.856
		C35.828,77.621,31.206,72.448,27.187,68.497z"/>
</g>
</svg>
