<?xml version="1.0" encoding="utf-8"?>
<!-- Generator: Adobe Illustrator 16.0.0, SVG Export Plug-In . SVG Version: 6.00 Build 0)  -->
<!DOCTYPE svg PUBLIC "-//W3C//DTD SVG 1.1//EN" "http://www.w3.org/Graphics/SVG/1.1/DTD/svg11.dtd">
<svg version="1.1" id="Layer_1" xmlns="http://www.w3.org/2000/svg" xmlns:xlink="http://www.w3.org/1999/xlink" x="0px" y="0px"
	 width="82.4375px" height="118.3711px" viewBox="0.0002 0 82.4375 118.3711"
	 style="enable-background:new 0.0002 0 82.4375 118.3711;" xml:space="preserve">
<path d="M69.1038,50.4858c4.8779,0.9224,8.3193,2.98,10.3242,6.1792s3.0088,8.2393,3.0088,15.1221
	c0,13.6582-4.1045,24.8359-12.3164,33.5352c-8.2109,8.6992-18.7119,13.0488-31.5029,13.0488c-5.041,0-9.9336-0.9082-14.6758-2.7246
	c-4.7422-1.8145-8.8193-4.3496-12.2344-7.6016c-3.9023-3.5771-6.8291-7.3574-8.7803-11.3408s-2.9268-8.0615-2.9268-12.2354
	c0-4.6602,1.0029-8.2637,3.0078-10.8115s5.1758-4.2812,9.5127-5.2031c-0.8125-1.8955-1.4102-3.4961-1.7891-4.7969
	c-0.3799-1.3018-0.5684-2.3037-0.5684-3.0088c0-2.4385,1.2871-4.9316,3.8613-7.4785c2.5732-2.5469,5-3.8208,7.2764-3.8208
	c0.9756,0,2.0039,0.1768,3.0889,0.5288c1.084,0.353,2.3301,0.9351,3.7402,1.748c-4.1748-11.8159-7.209-20.936-9.1055-27.3569
	c-1.8975-6.4229-2.8457-10.854-2.8457-13.293c0-3.3589,0.8662-6.0278,2.6016-8.0083C20.5149,0.9893,22.8723,0,25.8538,0
	c5.0947,0,11.5439,11.3809,19.3496,34.145c1.3535,3.9019,2.3848,6.9111,3.0898,9.0249c0.5957-1.6797,1.4355-4.0649,2.5195-7.1538
	C58.6184,13.4688,65.3381,2.1958,70.9749,2.1958c2.7656,0,4.9736,0.9341,6.626,2.8052c1.6533,1.8691,2.4795,4.377,2.4795,7.52
	c0,2.3862-0.9082,6.748-2.7236,13.0898C75.5393,31.9502,72.7893,40.2422,69.1038,50.4858z M10.8948,83.6562
	c0.7578,0.9219,1.8154,2.2754,3.1699,4.0645c3.5771,4.9316,6.8838,7.3975,9.9189,7.3975c1.0293,0,1.9512-0.3252,2.7646-0.9756
	c0.8125-0.6504,1.2197-1.3281,1.2197-2.0332c0-0.8115-0.542-2.168-1.626-4.0635c-1.085-1.8975-2.5742-4.0371-4.4717-6.4238
	c-2.168-2.7646-3.9717-4.7822-5.4062-6.0576c-1.4375-1.2715-2.5889-1.9092-3.4551-1.9092c-1.8975,0-3.6465,1.0156-5.2432,3.0488
	c-1.5996,2.0322-2.3975,4.4307-2.3975,7.1943c0,2.2236,0.5547,4.7031,1.666,7.4385c1.1094,2.7373,2.7236,5.4873,4.8379,8.252
	c3.1963,4.2822,7.167,7.5752,11.9102,9.8779c4.7412,2.3047,9.9844,3.4551,15.7305,3.4551c10.5684,0,19.416-3.9434,26.5439-11.8291
	c7.126-7.8857,10.6904-17.7637,10.6904-29.6338c0-3.6309-0.2715-6.5176-0.8125-8.6582c-0.543-2.1406-1.4365-3.6987-2.6836-4.6738
	c-2.2236-1.8428-6.5439-3.4961-12.9668-4.96c-6.4238-1.4639-13.1309-2.1938-20.1211-2.1938c-1.9512,0-3.334,0.3237-4.1465,0.9751
	c-0.8125,0.6499-1.2197,1.7617-1.2197,3.334c0,3.6855,2.0596,6.3545,6.1787,8.0078c4.1182,1.6533,10.7852,2.4795,20,2.4795h3.333
	c0.7588,0,1.3682,0.2832,1.8291,0.8535c0.46,0.5684,0.7725,1.4229,0.9355,2.5625c-0.9229,0.8662-2.8184,1.8555-5.6904,2.9668
	c-2.873,1.1113-5.0684,2.209-6.585,3.293c-3.252,2.3848-5.8682,5.2168-7.8457,8.4941c-1.9795,3.2812-2.9688,6.3828-2.9688,9.3105
	c0,1.7881,0.4199,3.9414,1.2617,6.4629c0.8398,2.5195,1.2598,4.0781,1.2598,4.6738v0.5703l-0.1621,0.7305
	c-2.3857-0.1621-4.2686-1.5576-5.6504-4.1875c-1.3818-2.6279-2.0723-6.1387-2.0723-10.5273v-0.7314
	c-0.4355,0.3799-0.8545,0.6494-1.2607,0.8135c-0.4062,0.1611-0.8535,0.2432-1.3418,0.2432s-0.9492-0.041-1.3818-0.123
	c-0.4346-0.0811-0.9229-0.2021-1.4639-0.3643c0.1631,0.5967,0.2852,1.1787,0.3662,1.748c0.0811,0.5674,0.1221,1.0156,0.1221,1.3418
	c0,2.0039-0.7861,3.7266-2.3584,5.1621c-1.5723,1.4365-3.4424,2.1533-5.6094,2.1533c-3.4141,0-6.8838-1.667-10.4053-5
	c-3.5264-3.333-5.2871-6.5967-5.2871-9.7959c0-0.5957,0.0664-1.124,0.2031-1.585C10.3381,84.375,10.5686,83.9805,10.8948,83.6562z
	 M35.2844,85.6074c0.9209,0,1.7607-0.4199,2.5195-1.2598c0.7588-0.8408,1.1387-1.748,1.1387-2.7256
	c0-1.0283-0.7461-3.4268-2.2344-7.1943c-1.4922-3.7666-3.3486-7.4658-5.5693-11.0967c-1.626-2.7109-3.2256-4.7568-4.7969-6.1392
	c-1.5723-1.3828-3.0625-2.0728-4.4717-2.0728c-1.1387,0-2.3975,0.7197-3.7803,2.1538c-1.3818,1.437-2.0732,2.7778-2.0732,4.0239
	c0,1.3008,0.6777,3.252,2.0332,5.8535c1.3535,2.6025,3.1699,5.3652,5.4463,8.293c2.3848,3.1992,4.6348,5.6904,6.748,7.4795
	C32.3567,84.7129,34.0364,85.6074,35.2844,85.6074z M43.2512,46.3398l-8.7803-25.3647c-2.2764-6.4492-4.0381-10.6621-5.2842-12.6431
	c-1.2471-1.9771-2.6016-2.9668-4.0645-2.9668c-1.1387,0-2.0605,0.4346-2.7646,1.3008c-0.7051,0.8672-1.0566,2.0332-1.0566,3.4961
	c0,2.4932,0.9473,6.8291,2.8447,13.0078c1.8984,6.1792,4.7422,14.2812,8.5371,24.3091c0.3252-0.5962,0.7852-1.0171,1.3818-1.2612
	c0.5967-0.2427,1.4092-0.3657,2.4385-0.3657c0.3252,0,0.9756,0.0278,1.9512,0.082C39.4299,45.9878,41.0276,46.124,43.2512,46.3398z
	 M52.4377,70.9746c-2.3301-0.1084-4.54-0.3535-6.625-0.7314c-2.0879-0.3789-4.0791-0.9229-5.9756-1.627
	c0.8662,1.7354,1.6387,3.4697,2.3154,5.2021c0.6787,1.7363,1.2324,3.4434,1.667,5.123c1.3018-1.627,2.6689-3.1025,4.1055-4.4316
	C49.3606,73.1836,50.8655,72.0039,52.4377,70.9746z M63.2512,49.104c3.6299-9.8628,6.4629-18.0078,8.4951-24.4302
	c2.0322-6.4229,3.0488-10.3647,3.0488-11.8291c0-1.5708-0.3389-2.7905-1.0166-3.6577c-0.6787-0.8662-1.6123-1.3013-2.8057-1.3013
	c-1.5176,0-3.0615,1.2603-4.6338,3.7803s-3.3066,6.5718-5.2031,12.1538l-8.1299,23.4951L63.2512,49.104z"/>
</svg>
