<?xml version="1.0" encoding="utf-8"?>
<!-- Generator: Adobe Illustrator 16.0.0, SVG Export Plug-In . SVG Version: 6.00 Build 0)  -->
<!DOCTYPE svg PUBLIC "-//W3C//DTD SVG 1.1//EN" "http://www.w3.org/Graphics/SVG/1.1/DTD/svg11.dtd">
<svg version="1.1" id="Layer_1" xmlns="http://www.w3.org/2000/svg" xmlns:xlink="http://www.w3.org/1999/xlink" x="0px" y="0px"
	 width="82.438px" height="118.371px" viewBox="0 0 82.438 118.371" enable-background="new 0 0 82.438 118.371"
	 xml:space="preserve">
<path d="M69.104,50.486c4.878,0.922,8.319,2.98,10.324,6.179s3.009,8.239,3.009,15.122c0,13.658-4.105,24.836-12.317,33.535
	c-8.211,8.699-18.712,13.049-31.503,13.049c-5.041,0-9.933-0.908-14.675-2.725c-4.743-1.814-8.82-4.349-12.235-7.601
	c-3.902-3.577-6.829-7.358-8.78-11.341C0.976,92.721,0,88.643,0,84.469c0-4.66,1.003-8.264,3.008-10.812
	c2.005-2.547,5.176-4.281,9.513-5.203c-0.813-1.896-1.41-3.496-1.789-4.797c-0.38-1.301-0.569-2.303-0.569-3.008
	c0-2.439,1.287-4.932,3.862-7.479c2.573-2.547,5-3.821,7.276-3.821c0.976,0,2.004,0.177,3.089,0.529
	c1.084,0.353,2.33,0.935,3.74,1.748c-4.175-11.816-7.209-20.936-9.105-27.357c-1.898-6.423-2.846-10.854-2.846-13.293
	c0-3.359,0.866-6.028,2.602-8.008C20.515,0.989,22.872,0,25.854,0c5.094,0,11.544,11.381,19.349,34.145
	c1.354,3.902,2.385,6.911,3.09,9.025c0.596-1.68,1.436-4.065,2.52-7.154c7.805-22.547,14.525-33.82,20.162-33.82
	c2.765,0,4.973,0.934,6.626,2.805c1.653,1.869,2.479,4.377,2.479,7.52c0,2.386-0.908,6.748-2.723,13.09
	C75.539,31.95,72.789,40.242,69.104,50.486z M10.895,83.656c0.758,0.922,1.815,2.276,3.17,4.064
	c3.577,4.933,6.883,7.398,9.919,7.398c1.029,0,1.951-0.325,2.764-0.976c0.813-0.65,1.22-1.327,1.22-2.032
	c0-0.812-0.542-2.168-1.626-4.064c-1.085-1.897-2.574-4.037-4.472-6.424c-2.168-2.764-3.971-4.782-5.406-6.057
	c-1.437-1.272-2.589-1.91-3.455-1.91c-1.897,0-3.646,1.016-5.243,3.049c-1.6,2.032-2.398,4.431-2.398,7.195
	c0,2.223,0.555,4.702,1.666,7.438c1.11,2.737,2.724,5.487,4.838,8.252c3.197,4.282,7.167,7.575,11.91,9.878
	c4.742,2.304,9.985,3.455,15.731,3.455c10.568,0,19.416-3.943,26.544-11.829c7.126-7.886,10.69-17.764,10.69-29.634
	c0-3.631-0.271-6.517-0.812-8.658c-0.543-2.141-1.437-3.699-2.684-4.674c-2.223-1.843-6.544-3.496-12.967-4.96
	s-13.13-2.194-20.121-2.194c-1.951,0-3.334,0.324-4.146,0.975c-0.813,0.65-1.22,1.762-1.22,3.334c0,3.686,2.06,6.355,6.179,8.008
	c4.118,1.653,10.785,2.479,20,2.479h3.333c0.759,0,1.368,0.284,1.829,0.854c0.46,0.569,0.772,1.423,0.935,2.562
	c-0.922,0.867-2.818,1.856-5.69,2.967c-2.873,1.111-5.068,2.209-6.585,3.293c-3.252,2.385-5.868,5.217-7.846,8.495
	c-1.979,3.28-2.968,6.382-2.968,9.31c0,1.788,0.42,3.942,1.261,6.463c0.84,2.52,1.26,4.078,1.26,4.674v0.57l-0.162,0.73
	c-2.386-0.162-4.269-1.557-5.65-4.187c-1.382-2.628-2.073-6.138-2.073-10.528v-0.731c-0.435,0.38-0.854,0.65-1.26,0.813
	c-0.407,0.162-0.854,0.244-1.342,0.244c-0.488,0-0.949-0.041-1.382-0.123c-0.435-0.081-0.923-0.203-1.464-0.365
	c0.163,0.597,0.285,1.179,0.366,1.748c0.081,0.568,0.122,1.016,0.122,1.342c0,2.005-0.786,3.727-2.358,5.162
	c-1.572,1.437-3.442,2.154-5.609,2.154c-3.414,0-6.884-1.667-10.406-5C11.761,92.883,10,89.619,10,86.42
	c0-0.596,0.067-1.124,0.203-1.585C10.338,84.375,10.569,83.981,10.895,83.656z M35.284,85.607c0.921,0,1.761-0.42,2.52-1.26
	s1.139-1.748,1.139-2.725c0-1.028-0.746-3.427-2.235-7.194c-1.492-3.767-3.348-7.466-5.569-11.097
	c-1.626-2.711-3.226-4.757-4.797-6.139c-1.572-1.383-3.062-2.073-4.472-2.073c-1.138,0-2.397,0.72-3.78,2.154
	c-1.382,1.437-2.073,2.778-2.073,4.024c0,1.301,0.678,3.252,2.033,5.854c1.354,2.602,3.17,5.365,5.446,8.293
	c2.385,3.198,4.635,5.69,6.748,7.479C32.357,84.713,34.036,85.607,35.284,85.607z M43.251,46.34l-8.78-25.365
	c-2.276-6.449-4.038-10.662-5.284-12.643c-1.247-1.977-2.602-2.967-4.065-2.967c-1.138,0-2.06,0.435-2.764,1.301
	c-0.705,0.867-1.057,2.033-1.057,3.496c0,2.493,0.947,6.829,2.845,13.008s4.742,14.281,8.537,24.309
	c0.325-0.596,0.785-1.017,1.382-1.261c0.596-0.243,1.409-0.366,2.438-0.366c0.325,0,0.976,0.028,1.951,0.082
	C39.43,45.988,41.028,46.124,43.251,46.34z M52.438,70.974c-2.33-0.108-4.54-0.353-6.625-0.731
	c-2.088-0.379-4.079-0.922-5.976-1.627c0.866,1.736,1.639,3.47,2.316,5.203c0.678,1.736,1.232,3.443,1.667,5.123
	c1.301-1.627,2.669-3.103,4.105-4.432C49.361,73.183,50.865,72.004,52.438,70.974z M63.251,49.104
	c3.63-9.863,6.463-18.008,8.495-24.43c2.033-6.423,3.049-10.365,3.049-11.829c0-1.571-0.339-2.791-1.016-3.658
	c-0.679-0.866-1.613-1.301-2.806-1.301c-1.518,0-3.062,1.26-4.634,3.78c-1.572,2.52-3.307,6.572-5.203,12.154l-8.13,23.495
	L63.251,49.104z"/>
</svg>
