<?xml version="1.0" encoding="utf-8"?>
<!-- Generator: Adobe Illustrator 16.0.0, SVG Export Plug-In . SVG Version: 6.00 Build 0)  -->
<!DOCTYPE svg PUBLIC "-//W3C//DTD SVG 1.1//EN" "http://www.w3.org/Graphics/SVG/1.1/DTD/svg11.dtd">
<svg version="1.1" id="Layer_1" xmlns="http://www.w3.org/2000/svg" xmlns:xlink="http://www.w3.org/1999/xlink" x="0px" y="0px"
	 width="1578.914px" height="800px" viewBox="0 0 1578.914 800" enable-background="new 0 0 1578.914 800" xml:space="preserve">
<g id="Layer_2">
</g>
<rect id="background" x="19.25" y="-111.5" fill="none" stroke="#BEE0ED" stroke-width="2" stroke-miterlimit="10" width="1537.5" height="1025"/>
<path id="al" fill="none" stroke="#BEE0ED" stroke-width="2" stroke-linejoin="round" d="M1110.685,472.199l-71.305,7.39
	l-2.116,112.768l7.339,54.733c0,0,3.312-0.57,8.722,0.448c0,0,0.445-8.611,1.957-12.68c0,0,5.393,1.038,3.117,7.562
	c0,0,1.127,2.287,4.404,3.396c0,0,2.367,2.239,3.826,4.612c0,0,5.676-1.521,8.021-9.56c0.053-3.313,0.37-6.599-3.123-8.349
	c-4.449-2.222-6.033-6.941-1.774-9.899l28.693-2.893l48.295-5.786c0,0-3.083-6.233-4.014-16.405c0,0-0.836-4.763-3.416-12.743
	c0,0-0.874-3.638,4.326-16.376c0,0,1.063-2.832-6.776-12.877c0,0-3.256-5.693-4.364-9.685L1110.685,472.199"/>
<path id="ar" fill="none" stroke="#BEE0ED" stroke-width="2" stroke-linejoin="round" d="M973.847,485.107
	c0,0,1.396-4.475,3.783-6.862c0,0,1.949-1.981,2.082-5.235c0,0-0.415-3.463,1.606-6.155c0,0,4.109-9.026,6.779-19.344l-16.691,1.771
	c-0.969-2.112-1.339-2.833,0.135-4.857c1.42-1.949,3.304-2.622,4.715-4.387c2.98-3.711-0.104-7.628-3.514-9.669l-52.062,3.338
	l-45.62,2.004l-28.702,0.669c0,0-0.051,4.227,1.656,10.37c0,0,4.014,17.437,4.572,30.129l0.42,64.248v-0.056
	c0.804,0.371,1.474,0.831,2.252,1.441c1.371,1.106,7.875-0.48,10.9,0.671l0.671,19.579l37.156-1.336l48.95-2.663
	c1.361-7.995,0.453-14.246,0.453-14.246c-3.866-4.987-1.344-12.455-1.344-12.455s2.207-3.833,3.466-5.623
	c0,0,2.165-4.952,2.593-7.774c0,0,0.482-3.744,3.235-6.009c0,0,5.616-7.204,7.492-14.369c0,0,0.378-3.16,1.182-5.247
	C969.992,493.037,973.589,485.558,973.847,485.107z"/>
<path id="az" fill="none" stroke="#BEE0ED" stroke-width="2" stroke-linejoin="round" d="M434.713,397.667l-38.939-5.118
	l-37.602-5.558l-38.496-6.24l-26.03-4.669c-1.589,8.764-1.284,22.5-6.23,29.928c-7.201,10.811-7.703-6.241-16.464-2.117
	c-5.766,2.718-2.875,12.888-3.339,18.474c-0.243,2.938,0.236,7.572-0.22,10.234c-0.851,4.905-3.101,5.152-3.338,12.457
	c0,9.231,1.937,8.283,3.116,12.678c0.474,1.776,1.148,4.219,1,6.011c-0.249,3.013,3.443,3.474,4.338,6.014
	c2.096,5.893-4.063,4.978-8.23,8.679c-4.205,3.729-3.186,7.219-4.669,12.229c-1.516,5.114-6.959,7.814-8.681,11.796
	c-0.782,1.802-2.012,9.854-1.109,11.799c0.814,1.765,10.081,4.936,3.67,9.012c-3.257,2.072-2.866,2.673-7.235,2.337
	c0,0-4.517,3.254-4.228,7.112l7.121,4.234l59.853,34.493l39.165,22.021l45.607,6.451l15.132,1.784l0,0L434.713,397.667"/>
<path id="ca" fill="none" stroke="#BEE0ED" stroke-width="2" stroke-linejoin="round" d="M267.167,457.745
	c0.474,1.774,1.147,4.217,1,6.009c-0.249,3.016,3.443,3.476,4.338,6.014c2.096,5.893-4.064,4.975-8.231,8.678
	c-4.205,3.729-3.186,7.22-4.669,12.229c-1.517,5.115-6.959,7.815-8.681,11.799c-0.782,1.8-2.012,9.854-1.11,11.797
	c0.814,1.762,10.081,4.935,3.67,9.014c-3.257,2.067-2.865,2.673-7.234,2.335l-71.422-7.345c0,0-1.724-3.493-3.788-5.556
	c3.611-13.523-0.299-27.917-11.458-37.051c-2.315-1.896-10.204-5.951-11.009-7.017c-3.003-4.425,0.054-9.95-4.451-13.344
	c-17.373-13.072-47.05-22.662-54.069-39.828c-1.487-3.624,5.42-9.897,2.667-13.684c-4.423-6.087-4.138-7.899-7.565-15.241
	c-3.849-8.248-14.529-23.723-15.128-32.267c-0.225-3.193,4.223-12.533,4.223-14.24c0.146-1.87-3.377-10.037-3.782-11.784
	c-1.737-11.386-13.576-23.01-1.561-32.94c-0.438,8.447,1.144,9.433,7.122,14.91c-1.176-4.344-7.322-18.62-4.227-21.576
	c4.227-4.039,22.796,4.949,25.143,7.115c-2.634-5.043-2.634-5.043-5.56-7.115c-2.929-2.076-22.767-12.847-24.923,5.558
	c-4.274-4.021-9.179-8.113-9.417-9.567c0-1.348,0.743-2.554,0.743-7.338c0-5.299-8.418-13.901-11.798-27.15
	c-3.173-12.443,6.827-26.518,2.67-39.826c-6.673-21.361-5.01-19.087,3.782-36.267c6.377-12.456,5.455-28.833,10.9-38.271
	l57.854,16.018l48.952,12.459l-19.803,81.661l-6.012,24.026l84.108,122.601l35.601,52.514
	C264.051,454.292,265.988,453.352,267.167,457.745z"/>
<polyline id="co" fill="none" stroke="#BEE0ED" stroke-width="2" stroke-linejoin="round" points="434.713,397.667 481.881,403.232 
	523.938,407.461 574.669,411.688 606.711,413.688 634.749,415.469 640.084,306.218 641.971,269.821 612.94,268.393 588.243,266.61 
	545.966,263.275 522.603,261.051 478.769,256.38 452.958,253.262 434.713,397.667 "/>
<path id="ct" fill="none" stroke="#BEE0ED" stroke-width="2" stroke-linejoin="round" d="M1442.438,149.357l-21.453,5.042
	l-22.372,4.528l4.672,26.032c0,0,1.76,1.433,1.279,4.897c0,0-0.163,0.448-2.751,3.029c0,0-1.544,0.858-0.26,2.134l1.954,1.957
	l2.228-0.891c0,0,8.101-8.562,13.403-11.944c0,0,6.812-3.234,14.972-5.212c0,0,1.599-0.41,2.998-1.088
	c1.396-0.68,9.456-3.083,10.668-4.005c-0.443-2.68,0.463-4.01,0.463-4.01L1442.438,149.357"/>
<path id="de" fill="none" stroke="#BEE0ED" stroke-width="2" stroke-linejoin="round" d="M1357.445,255.938
	c1.682-9.467,9.132-5.343,9.132-5.343c-3.869,5.546-2.71,8.676-2.71,8.676c3.413,6.373,7.797,11.849,7.797,11.849
	c1.545,4.51,4.562,11.78,8.839,12.915c0.008,0.002,0.01,0.005,0.015,0.007c4.262,1.75,3.949,4.328,3.949,4.328
	c0.393,5.345,3.479,8.037,3.479,8.037l-1.349,0.245l-16.932,3.783L1357.445,255.938"/>
<g id="fl">
	<path id="fl_1_" fill="none" stroke="#BEE0ED" stroke-width="2" stroke-linejoin="round" d="M1255.096,608.828
		c0,0,8.178,30.247,33.527,62.083c0,0,8.696,8.308,9.875,12.92c0,0-0.565,7.132,5.82,17.56c0,0-6.104-5.78-7.396-18.25
		c0,0,0.825-2.027-8.254-7.252c0,0,1.444,9.986,17.425,32.229c0,0,7.635,12.074,14.552,23.44c0,0,5.648,11.871,5.648,20.37
		c0,0-0.57,2.947,0.896,12.646c0,0,0.896,5.389,0,11.309c0,0-5.883,6.231-2.94,15.088c0,0-1.326,7.314-9.824,11.696
		c0,0-7.655,1.884-13.486,2.039c0,0-4.762-1.997-1.784-6.754c0,0-3.818-5.7-6.666-10.44c0,0-4.432-6.602-10.25-8.025
		c0,0-4.774,1.645-9.132-4.81c0,0-3.2-5.375-3.2-8.268c0,0,0.285-1.765-6.054-6.059c0,0-5.125-5.362-4.622-11.642
		c0.035-0.367-0.104-0.908-1.048-1.401c-0.618-0.315-1.539-0.928-2.865-2.087c0,0-1.489,1.895,1.639,5.346
		c0,0-6.867,1.326-17.577-17.588c0,0-3.144-4.046-1.667-5.732c1.239-1.412,2.905-3.946,4.885-8.516c0,0,2.298-2.855,1.137-4.012
		c0,0-1.291-2.963-4.888,0c0,0-1.589,1.814-1.786,4.066c0,0-0.576,2.745-2.738,2.745c0,0-5.155-1.049-5.155-5.16
		c0,0,5.653-26.085,1.292-36.586c0,0-2.413-6.528-15.623-11.229c0,0-5.107-2.562-11.519-10.41c0,0-5.098-6.892-14.079-12.817
		c0,0-4.893-2.505-13.117-2.255c0,0-7.458,0.701-4.62,7.647c0,0-5.623,0.053-9.489,3.906c0,0-10.074,6.034-17.542,6.034
		c0,0-18-31.538-65.158-15.083c0,0-5.025,2.623-2.448-1.11c0,0,1.877-2.258-2.212-3.604c0.053-3.313,0.37-6.597-3.12-8.349
		c-4.452-2.222-6.036-6.941-1.777-9.899l28.693-2.893l48.295-5.786c0,0,2.895,5.141,5.3,9.305l81.587-5.881
		c0,0,1.334,7.106,5.195,6.354c0,0,4.044-2.13,0.775-11.196c0,0-1-2.82,1.154-4.259
		C1240.752,608.262,1246.43,606.849,1255.096,608.828"/>
	<path id="fl_key_5_" fill="none" stroke="#BEE0ED" stroke-width="2" stroke-linejoin="round" d="M1326.482,792.938
		c0,0-1.679,0.383-2.409,3.431c0,0,0.112,3.065-5.761,11.434C1318.308,807.802,1324.706,801.668,1326.482,792.938z"/>
</g>
<path id="ga" fill="none" stroke="#BEE0ED" stroke-width="2" stroke-linejoin="round" d="M1148.512,467.417l35.603-5
	c-3.687,3.687-5.561,10.679-5.561,10.679c2.274,5.442,10.673,7.502,10.673,7.502c4.852,0,6.219,3.371,6.219,3.371
	c2.963,9.917,18.78,18.38,18.78,18.38c10.343,8.013,12.263,10.921,12.263,10.921c4.664,7.447,9.762,10.625,9.762,10.625
	c9.771,6.188,10.167,11.507,10.167,11.507c1.399,6.108,5.854,7.409,5.854,7.409c3.914,3.912,4.149,7.921,4.149,7.921
	c2.6,6.163,9.576,8.037,9.576,8.037l1.617,0.559c-5.232,6.847-7.405,15.942-7.405,15.942c-0.458,8.712-4.486,17.492-4.486,17.492
	c-1.92,5.754-0.624,16.071-0.624,16.071c-8.67-1.978-14.349-0.568-14.349-0.568c-2.154,1.444-1.153,4.259-1.153,4.259
	c3.268,9.066-0.775,11.193-0.775,11.193c-3.864,0.759-5.195-6.351-5.195-6.351l-81.59,5.876c-2.402-4.164-5.298-9.3-5.298-9.3
	s-3.083-6.235-4.014-16.405c0,0-0.836-4.765-3.416-12.743c0,0-0.873-3.638,4.327-16.378c0,0,1.063-2.836-6.777-12.875
	c0,0-3.255-5.695-4.366-9.685l-21.809-73.657L1148.512,467.417"/>
<path id="ia" fill="none" stroke="#BEE0ED" stroke-width="2" stroke-linejoin="round" d="M792.276,182.729l26.927-0.221
	l44.943-1.114l37.379-1.556l27.152-1.555c1.261,3.411,2.689,4.046,3.115,5.786c0.934,3.794-0.588,7.1-0.105,11.496
	c0.32,2.891,1.895,9.604,4.667,10.864c1.364,0.921,4.034,1.505,4.034,1.505c1.977,0.48,2.492,0.702,2.492,0.702
	c0.908,0.519,1.437,0.479,1.877,1.458c0.445,0.979,1.496,2.896,1.496,2.896s0.981,2.632,3.264,4.071
	c2.279,1.441,8.988,6.589,10.75,11.396c3.266,8.905-5.928,21.556-14.474,23.305c-6.608,1.354-8.613,1.344-8.889,8.624
	c-0.058,1.653,4.209,4.223,4.449,6.893c0.36,3.897-2.359,4.259-3.338,7.68c-2.242,7.795-4.737,9.179-8.461,16.8
	c-2.8-2.481-7.005-5.105-8.676-8.68l-18.025,2.004l-41.825,2.441l-19.135,0.446l-30.267-0.223
	c-6.611-7.731,1.441-31.227-9.119-34.263c-0.66-8.093-1.716-11.421-4.899-18.688c-1.507-3.445-3.578-13.385-4.975-15.896
	c-2.668-7.155-5.17-13.843-1.257-20.375c1.645-2.736-2.243-11.833-3.109-15.798H792.276"/>
<path id="id" fill="none" stroke="#BEE0ED" stroke-width="2" stroke-linejoin="round" d="M247.809,181.84l42.279,8.679l35.601,6.455
	l10.235,2.004l37.379,6.229l31.153,4.674l13.13-89.672c-4.376-4.03-7.688-15.951-11.125-3.333
	c-7.152-1.496-32.244-6.765-34.934,0.889c-2.296-2.449-5.092-6.982-4.118-10.236c2.293-7.624-6.711-5.599-8.008-10.345
	c-2.469-9.054-1.714-22.669-7.229-31.039c-27.503,15.062-7.89-22.102-3.785-36.048c-9.13-0.497-9.009-5.919-12.684-12.236
	c-4.998-8.592-11.101-14.396-16.023-22.473c0.819-0.146,1.632-0.3,2.45-0.445c-0.256-4.866-7.149-16.341-6.337-20.38
	c2.337-11.6,4.676-23.198,7.003-34.802l-5.335-1.112l-18.027-3.782l-0.218,1.336l-17.361,80.986l-0.895,7.342
	c-2.076,3.244,0.828,7.621-0.304,11.7l0.304,4.541l-0.666-2.223l0.666,2.223c0.323,8.849,12.254,11.497,4.58,20.137
	c-5.636,6.331-8.201,15.041-13.588,21.027c-4.034,4.484-14.568,11.252-10.568,18.689c0.499,0.93,3.7,0.842,4.448,2.226
	c1.724,3.193-0.186,1.809-0.446,4.672c-0.359,3.995-1.676,7.218-4.229,10.236L247.809,181.84"/>
<path id="il" fill="none" stroke="#BEE0ED" stroke-width="2" stroke-linejoin="round" d="M929.563,291.758
	c3.718-7.624,6.216-9.005,8.458-16.8c0.979-3.42,3.693-3.782,3.338-7.68c-0.245-2.67-4.512-5.24-4.449-6.893
	c0.271-7.28,2.279-7.27,8.887-8.624c8.553-1.749,17.747-14.4,14.477-23.305c-1.765-4.807-8.474-9.952-10.754-11.396
	c-2.279-1.441-3.26-4.071-3.26-4.071l42.048-2.445l32.94-2.89c2.723,13.548,3.518,16.003,10.229,27.368l8.008,85.438
	c-4.899,5.002-0.686,9.387,1.554,14.686c2.83,6.689-2.007,9.751-2.553,15.693c-0.433,4.672-6.243,9.401-7.009,13.237
	c-1.241,6.179-0.891,14.018-0.891,14.018c-0.16,4.333-1.194,2.683-0.731,8.274c0.466,5.592-5.662,5.925-5.662,5.925
	c-7.082,2.966-3.864,6.697-3.864,6.697c2.314,2.317,1.549,5.018,1.549,5.018c-2.462,3.203-4.885,0.766-4.885,0.766
	c-9.394-4.392-10.976-3.01-10.976-3.01c-7.066,3.716-3.463,8.815-3.463,8.815c-1.757-1.677-3.639-2.017-5.565-0.676l-3.563-4.664
	c-4.588-5.093-1.699-29.409-16.469-25.365c-8.383-9.871-17.918-9.855-9.785-24.922c2.45-4.532,3.557-11.875-3.338-12.567
	c-2.873-0.287-8.232,2.386-9.342,0.998c-3.528-4.396-1.466-9.658-5.234-14.314c-3.084-3.792-8.161-5.233-13.014-10.829
	C930.509,311.623,924.873,301.038,929.563,291.758"/>
<path id="in" fill="none" stroke="#BEE0ED" stroke-width="2" stroke-linejoin="round" d="M1049.492,231.462l14.242-1.337
	l39.974-4.837l11.434,96.28c0,0-1.987,1.299-0.2,4.289c0,0,3.281,5.411-2.848,9.372l-1.547,0.663c0,0-4.6,0.721-5.119,0.483
	c-6.441-2.97-5.158,7.93-8.429,11.792c-3.821,4.508-5.195,5.67-7.665,10.785c-1.331,2.758,1.381,4.375-2.455,6.23
	c-1.812,0.88-6.193-0.785-7.705-1.976c-4.614-3.638-6.596,2.453-7.862,6.834c-0.245,0.838-2.132,1.32-2.848,0.976
	c-4.317-2.064-8.271-1.265-10.506,2.807c-0.335,0.609-2.827,0.479-3.759-0.057c-8.963-5.176-15.319,3.993-23.607,4.321
	c0,0-0.357-7.839,0.891-14.018c0.771-3.836,6.576-8.566,7.01-13.238c0.545-5.939,5.388-9.004,2.553-15.693
	c-2.24-5.299-6.459-9.683-1.555-14.686l-8.008-85.438C1037.469,240.716,1044.195,235.516,1049.492,231.462"/>
<path id="ks" fill="none" stroke="#BEE0ED" stroke-width="2" stroke-linejoin="round" d="M824.098,309.557
	c4.092,4.531,9.172,1.98,11.233,5.228c3.739,5.878-5.315,5.929-4.664,9.781c1.065,6.276,2.026,3.103,4.989,7.69
	c2.788,4.318,1.649,4.613,8.477,8.893l1.769,77.209l-35.6,0.673h-65.193l-64.751-1.554l-45.611-2.002l5.335-109.253l34.938,1.781
	l67.64,1.78l35.375,0.224L824.098,309.557"/>
<path id="ky" fill="none" stroke="#BEE0ED" stroke-width="2" stroke-linejoin="round" d="M995.422,428.817l39.387-3.341
	l-0.318-5.706c51.152-3.751,93.917-8.608,125.122-12.76l0.021-0.005c18.918-7.74,22.281-16.652,22.281-16.652
	c1.994-5.856,5.147-8.646,5.147-8.646c5.969-2.914,15.021-14.123,15.021-14.123c-3.554-2.306-8.361-3.756-16.642-14.316
	c0,0-4.292-4.507-4.67-8.631c0,0,1.629-3.025-0.218-7.05c-2.324-2.587-11.738-10.847-14.358-8.458
	c-6.229,5.67-5.981,1.389-13.238,2.116c-3.363,0.339-16.046,1.435-19.169-2.656c-5.425-7.137-10.505-10.012-18.65-7.027
	c0,0-1.987,1.299-0.2,4.289c0,0,3.28,5.41-2.846,9.372l-1.549,0.663c0,0-4.6,0.721-5.12,0.481
	c-6.441-2.969-5.154,7.932-8.428,11.793c-3.821,4.508-5.195,5.67-7.665,10.785c-1.331,2.758,1.381,4.375-2.455,6.23
	c-1.812,0.879-6.193-0.785-7.705-1.976c-4.614-3.639-6.597,2.453-7.862,6.834c-0.245,0.838-2.133,1.32-2.848,0.976
	c-4.317-2.064-8.271-1.266-10.506,2.807c-0.335,0.609-2.827,0.479-3.759-0.057c-8.964-5.176-15.319,3.992-23.607,4.321
	c-0.16,4.333-1.196,2.683-0.731,8.274c0.466,5.591-5.662,5.925-5.662,5.925c-7.08,2.967-3.864,6.698-3.864,6.698
	c2.319,2.317,1.549,5.017,1.549,5.017c-2.462,3.203-4.89,0.764-4.89,0.764c-9.389-4.39-10.973-3.008-10.973-3.008
	c-7.07,3.714-3.461,8.813-3.461,8.813c1.979,4.259-0.456,9.571-1.557,15.13C998.027,424.112,995.617,425.449,995.422,428.817"/>
<path id="la" fill="none" stroke="#BEE0ED" stroke-width="2" stroke-linejoin="round" d="M1010.562,657.325
	c-7.993,2.487-14.777-8.278-22.915-4.89c-8.188,3.398-4.685,9.847,1.549,10.675c5.825,0.783,7.31-2.449,11.591-2.96
	c1.156,0,1.837,0.093,3.089,1.344c-1.081,2.617-0.067,2.268-2.883,3.184c8.581,6.691,7.567-0.046,11.046-1.109
	c2.614,0.386,4.304,2.44,3.413,7.778c-3.754-0.503-6.376,2.482-2.673,6.003c-1.776-0.729-3.003-1.474-4.67-0.673
	c-5.024,7.179,13.443,5.968,19.617,15.132c-0.403,3.896-0.983,3.599-2.508,5.993c-2.149-0.933-4.111-1.771-7.047-3.668
	c-4.947-2.94-5.893-2.61-11.884-6.369c-6.569-5.035-10.626-5.225-14.645-6.856c1.852,3.528,8.144,6.786,3.339,10.229
	c1.664,2.436,0.362,7.53-3.779,7.125c-3.293-0.328,1.642-8.809-5.565-5.568c-0.3-0.813-0.596-1.629-0.891-2.442
	c-7.152,0.804-7.167,12.317-14.955,7.263c-5.855-3.812-4.829-0.113-7.417-5.813c-1.859-4.111-8.383-5.528-11.906-7.812
	c-4.222-2.723-4.414-4.146-10.428-6.078c-3.771-1.739-12.655-1.739-8.03,6.213c-13.224,3.896-26.546-3.701-40.364-5.928
	c-8.533,0.726-12.372,4.326-14.089,3.078c-2.641-1.922,1.677-3.219,0.452-9.145c3.531-3.919,1.84-18.758,1.82-18.943
	c-0.834-5.601,4.176-12.289,3.894-18.468c-0.283-6.271-1.96-9.574-5.115-16.016c-3.025-6.174-3.983-14.659-10.681-19.139
	l-1.108-36.714l37.156-1.334l48.95-2.662c0,0,0.448,11.852,5.205,17.137c0,0,5.826,10.04-1.797,20.985
	c0,0-10.029,8.061-13.641,35.515l59.188-4.004c0.223,1.582-0.603,4.034-0.603,4.034c-1.822,4.009-2.165,7.635-2.165,7.635
	C1001.25,646.462,1010.562,657.325,1010.562,657.325"/>
<path id="ma" fill="none" stroke="#BEE0ED" stroke-width="2" stroke-linejoin="round" d="M1457.801,154.695
	c0,0,1.486,1.401,3.676,2.225c0,0,2.889,0.34,3.121,5.152c0,0,1.639-1.368,3.641-2.913c0,0,2.029-2.929,3.281-4.184
	c0,0,0.868-2.75,2.968-3.391c0,0,0.348,3.336,1.776,5.999c0,0,4.915-3.448,8.646-5.314c0,0,6.818-3.219,8.436-4.831
	c0,0,2.84-4.196-3.411-9.786c0,0-3.804-2.071-7.795-2.26c0,0,7.478,2.969,8.173,7.414c0,0-0.253,3.858-6.176,5.729
	c0,0-3.789,0.858-6.789-2.143c0,0-0.716-2.557-3.954-3.587c0,0-2.265-0.452-2.265-2.32c0,0-0.272-1.481,1.864-0.545
	c0,0-2.507-4.024-6.169-5.636c0,0-1.934-0.381-4.381,0.259c0,0-2.561-0.359-3.917-3.142c0,0,2.1,0.008,2.1-2.096
	c0,0-0.045-2.001,0.841-3.78c0,0,1.699-3.072,5.295-5.01c0,0,0.602-1.135-0.202-1.939c0,0-0.646-0.335-1.925,0.193
	c0,0-0.57,0.695-2.507-0.457c0,0-2.104-2.198-2.771-6.36c0,0-3.709,0.217-6.749,4.516c0,0-2.229,3.646-4.379,5.279l-29.592,6.898
	l-20.252,4.228l-0.653,24.691l0.881,1.339l22.374-4.528l21.454-5.041l8.911-2.67c0,0,2.106,1.12,2.885,2.893
	C1454.232,149.577,1455.744,152.873,1457.801,154.695"/>
<path id="md" fill="none" stroke="#BEE0ED" stroke-width="2" stroke-linejoin="round" d="M1327.188,291.312
	c0,0,4.745-1.229,4.745,7.122c0,0-6.174,9.512-2.705,11.575c0,0,7.602-4.252,25.111,6.954c0,0,0.383-4.354-7.332-15.311
	c0,0-11.579-19.377,3.831-34.46c1.222-1.19,2.605-0.119,1.281,4.773c-2.024,7.501-3.468,18.604,2.22,26.708
	c0,0,1.807,1.979,1.164,7.321c0,0,5.145-1.224,11.003,2.486c0,0,4.962,2.042,3.153,9.507l3.778,1.714l1.309-1.133l7.47-2.455
	c0,0,4.164-12.29,4.38-19.459l-16.935,3.781l-12.217-44.498l-52.961,11.344l-46.724,8.897l3.115,18.691
	c5.038-7.086,10.018-11.942,10.018-11.942c3.469-0.355,5.969-4.468,5.969-4.468c-0.266-1.866,0.37-1.991,0.726-2.132
	c0.36-0.141,1.336,0.345,1.336,0.345c3.078,2.206,6.784,1.394,6.784,1.394c5.021-10.234,12.88-6.375,12.88-6.375
	c7.077,3.032,9.012,9.381,9.012,9.381c6.381-1.246,8.23,3.784,8.23,3.784c-0.381,2.921,2.004,3.786,2.004,3.786
	C1321.117,288.01,1327.188,291.312,1327.188,291.312"/>
<path id="me" fill="none" stroke="#BEE0ED" stroke-width="2" stroke-linejoin="round" d="M1429.086,29.205
	c0,0,1.006-1.616,4.006-1.113c0,0,2.543,0.233,1.814-2.983c0,0,0.428-7.088,2.257-10.106c0,0,6.404-7.206,3.967-20.729
	c0,0-0.641-5.406,1.416-11.2c0,0,0.861-5.938-0.668-10.697l10.353-30.618c0,0,2.098-1.19,4.227,0c0,0,1.019,7.318,6.429,6.641
	c0,0,0.571-0.181,1.352-0.966c0,0,1.786-1.348,3.384-1.978c0,0,2.162-1.296,4.051-3.624c0,0,3.922-5.665,11.046-0.902
	c0,0,5.007,3.944,7.562,4.162l12.897,38.271c0,0-0.117,5.983,2.102,7.724c0,0,3.864,1.736,6.374,1.736c0,0,2.508-0.771,3.769,0
	c0,0,0.578,1.159,0.283,3.188c0,0-0.147,3.042,1.451,4.636c0,0,0.914,1.903,1.276,3.751c0.365,1.851,0,0.208,0,0.208
	s0.94,2.417,4.805,1.45c0,0,3.038-1.11,5.693,1.543c0,0,1.549,1.355,1.065,3.77c0,0-2.021,2.298-0.62,4.094
	c0,0,2.665,1.371,2.942-1.171c0,0,6.416,2.161-7.562,12.459c0,0-3.771,1.509-7.6,5.343c0,0-1.264,4.379-10.436,6.018
	c0,0-5.399,1.063-4.727,8.888c0,0-3.088-1.35-6.371-0.966c0,0,2.412-2.702-2.228-7.336c0,0-2.587,2.91-2.52,7.154
	c0,0-1.542,7.62-0.376,11.29c0,0,1.975,1.504-0.863,4.348c-0.147,0.142-1.488,1.215-3.363,0.42c0,0-2.577-0.807-3.688,1.848
	c0,0-0.433,2.027,0,3.09c0,0,0.29,2.127-1.544,3.139c0,0-2.798,2.759-8.974,4.761c0,0-1.699-0.267-2.617-1.766
	c0,0-2.896,2.414-3.089,6.277c0,0,0.581,1.607-1.288,5.343c0,0-0.729,2.417-1.222,6.181c-0.442,3.359-0.775,3.157-1.939,5.343
	c0,0-0.445,2.127-0.314,4.638c0,0,0.234,1.927-1.139,4.311l-1.114-0.665c-3.341-1.698-3.801-4.866-3.801-4.866
	c-6.794-3.636-6.209-10.262-6.209-10.262l-2.67-6.898L1429.086,29.205"/>
<path id="mn" fill="none" stroke="#BEE0ED" stroke-width="2" stroke-linejoin="round" d="M781.374,107.081
	c0-3.405,4.976-6.211,4.976-6.211c3.197-1.758,2.814-6.248,2.814-6.248c0.278-3.762,0.283-9.673-1.335-14.017
	c-1.479-3.952-4.344-6.614-4.462-11.052c-0.146-5.783-0.171-10.916-0.876-16.314c-0.494-3.733-1.833-9.331-1.12-12.905
	c1.978-9.894-7.064-18.928-6.562-28.926c0.13-2.595,0.179-5.34-0.221-7.9c-0.405-2.57,1.027-4.128,1.002-6.563
	c-0.047-3.91-3.699-8.214-2.899-12.015h30.932l18.74-0.451l-0.272-13.343c3.396,1.499,7.409,0.11,8.275,4.751
	c0.776,4.133,1.749,7.984,2.963,12.013c0.856,2.836-0.163,6.822,4.6,6.822c4.063,0,6.557,1.573,10.585,2.024
	c1.521,0.169,4.475-0.087,5.841,0.646c1.356,0.736,0.561,2.89,3.113,3.561c3.438,0.905,6.432-2.685,8.681-3.781
	c3.672-1.789,12.48-0.97,17.82,4.874c5.34,5.842,3.983,5.95,8.213,7.145c-0.072-4.162,3.208-4.88,6.672-3.339
	c1.011,0.445,1.756,2.596,3.523,3.364c2.619,1.138,2.938,2.428,4.486,3.534c9.938,7.093,12.439-5.842,21.139-5.116
	c0.575,6.397,8.188,3.979,13.573,3.335c1.186-0.139,3.578-0.836,4.674-0.445c1.084,0.387,1.692,2.544,2.45,2.893
	c2.953,1.369,6.674,0,10.225,0c-1.927,3.093-14.236,9.123-14.236,9.123c-12.922,2.949-22.819,15.549-22.819,15.549
	c-4.457,7.783-16.712,18.18-16.712,18.18c-4.066,3.85-5.638,5.428-5.638,5.428c-5.943,4.733-3.823,10.903-3.508,18.812
	c0.495,12.666-9.454,7.464-10.948,15.009c-0.516,2.598-3.344,4.355-3.344,6.785c0,2.424,6.457,7.142,6.457,8.568
	c0,1.428-3.028,10.143-1.774,17.802c1.056,6.45-0.085,11.262,9.124,12.792c4.073,0.677,12.206,7.403,14.544,11.081
	c3.463,5.438,9.164,5.62,13.272,9.722c4.347,4.344,3.807,10.54,5.336,16.021l-27.149,1.555l-37.382,1.553l-44.943,1.114
	l-26.927,0.221l-0.447-64.97c-2.317-3.736-5.893-3.892-5.893-3.892C784.359,110.497,781.374,107.081,781.374,107.081z"/>
<path id="mo" fill="none" stroke="#BEE0ED" stroke-width="2" stroke-linejoin="round" d="M995.422,428.817
	c0,0-1.826,0.855-2.917,2.472c0,0-0.224,6.973-4.42,16.227l-16.691,1.769c-0.966-2.109-1.339-2.835,0.133-4.854
	c1.422-1.954,3.304-2.625,4.718-4.387c2.98-3.711-0.105-7.63-3.514-9.672l-52.061,3.341l-45.625,2.002l-28.703,0.671l-0.445-18.027
	l-1.771-77.209c-6.827-4.279-5.686-4.575-8.474-8.893c-2.958-4.587-3.924-1.414-4.989-7.69c-0.651-3.852,8.4-3.902,4.664-9.781
	c-2.062-3.247-7.142-0.694-11.233-5.228c-3.571-2.384-2.433-7.331-5.786-9.681c-3.203-2.245-6.644-8.446-6.674-12.129l30.265,0.224
	l19.136-0.446l41.824-2.441l18.032-2.004c1.661,3.578,5.871,6.199,8.674,8.68c-4.69,9.279,0.945,19.862,6.676,26.473
	c4.855,5.596,9.93,7.036,13.008,10.828c3.774,4.657,1.71,9.92,5.235,14.314c1.116,1.389,6.469-1.284,9.347-0.996
	c6.89,0.692,5.786,8.035,3.336,12.566c-8.131,15.068,1.406,15.052,9.787,24.923c14.767-4.039,11.879,20.274,16.466,25.362
	l3.566,4.669c1.927-1.346,3.806-1.011,5.56,0.671c1.985,4.254-0.45,9.572-1.551,15.13
	C998.027,424.112,995.617,425.449,995.422,428.817z"/>
<g id="mi">
	<path id="mi_upper" fill="none" stroke="#BEE0ED" stroke-width="2" stroke-linejoin="round" d="M942.245,65.917
		c0,0,8.914-4.018,11.762-7.362c0,0,3.028-4.11,9.88-3.871c0,0,5.9,0.577,19.081-14.801c0,0,4.327,2.418,6.312,8.365
		c1.986,5.954,0.01,0.206,0.01,0.206s0.658,2.269,0.658,6.25c0,0,3.594-6.365,12.196-5.922c0,0,4.625-1.496,12.062,7.778
		c0,0,6.887,10.115,25.51,2.063c0,0,9.441-7.696,20.649-7.696c0,0,4.185-0.888,6.752-2.306c0,0,5.764-2.977,8.641-2.734
		c0,0-0.646,7.487,1.307,10.191c0,0,6.291,0.966,12.185-0.579c0,0,5.215-4.248,8.981,6.181c0,0,1.642,3.959,6.139,6.132
		c0,0,2.1,0.753,2.762,2.771c0,0,0.176,1.531-4.935,1.531c0,0-1.935,0.867-9.273,0c0,0-8.679-1.924-6.702,6.04
		c0,0-3.773-1.778-5.811-3.822c0,0-4.189-4.702-14.521-2.494c0,0-3.762,6.748-15.402,6.357c0,0-2.905,0.056-7.223,7.225
		c0,0-2.617-7.799-11.15,4.127c0,0-2.585-2.334-1.887-7.085c0,0-7.588,17.033-12.763,30.623c-4.109-1.628-4.71-5.412-2.452-9.346
		c-9.564,3.344-1.822-8.303-5.894-12.01c-1.644-1.497-3.681-2.117-5.898-2.34c-2.593-0.259-0.39-3.633-2.673-5.005
		c-1.956-1.176-8.428-2.567-10.68-1.893c-7.015,2.106-21.23-4.922-28.58-6.327c-5.584-1.066-9.633-0.448-12.551-5.312
		C947.381,68.618,944.468,67.026,942.245,65.917"/>
	<path id="mi_lower" fill="none" stroke="#BEE0ED" stroke-width="2" stroke-linejoin="round" d="M1104.014,227.455l24.248-4.005
		l10.9-2.227c2.178-8.708,6.935-16.889,10.008-24.251c0.881-2.101,7.375-19.92,7.35-8.233c10.088-5.743-3.801-50.338-13.578-52.511
		c-11.937-2.654-12.324,18.769-20.91,18.022c-5.158-0.445-8.451-8.699-3.896-12.013c5.625-4.093,4.366-5.359,6.784-11.793
		c0.775-2.049,4.699-1.558,4.319-4.704c-0.396-3.321-0.746-6.33-0.586-9.658c0.298-6.319-5.178-7.289-5.956-11.893
		c-0.958-5.688,5.015-2,0-8.678c-2.97-3.963-6.173-4.455-11.408-5.885c-7.926-2.16-13.839-5.714-21.517-8.021
		c-10.09-3.024-12.062,7.724-7.792,14.348c-9.567-0.804-20.891,16.38-25.143,21.584c-4.387,5.381-1.949,9.953-2.67,16.91
		c-0.676,6.404-3.756,10.683-3.791,16.241c-0.04,7.508-0.693,12.9,3.011,19.913c3.641,6.904,6.979,12.808,8.1,20.631
		c1.657,11.557-1.764,32.682-12.001,40.228l14.243-1.337l39.972-4.838"/>
</g>
<path id="ms" fill="none" stroke="#BEE0ED" stroke-width="2" stroke-linejoin="round" d="M969.992,493.037
	c0,0,3.594-7.479,3.854-7.93l40.269-3.113l25.263-2.405l-2.12,112.768l7.343,54.733c0,0-4.963,2.357-11.016,1.177
	c0,0-3.409-0.831-9.593,0.9c0,0-6.283,1.321-8.705,4.111c0,0-1.187,3.491-4.725,4.047c0,0-9.314-10.858-11.454-17.247
	c0,0,0.343-3.626,2.17-7.633c0,0,0.82-2.457,0.598-4.033l-59.188,4.004c3.611-27.452,13.641-35.518,13.641-35.518
	c7.63-10.945,1.797-20.982,1.797-20.982c-4.757-5.285-5.205-17.137-5.205-17.137c1.361-7.998,0.453-14.249,0.453-14.249
	c-3.866-4.985-1.347-12.452-1.347-12.452s2.21-3.834,3.471-5.626c0,0,2.162-4.949,2.59-7.774c0,0,0.483-3.744,3.233-6.009
	c0,0,5.618-7.202,7.495-14.369C968.812,498.285,969.191,495.122,969.992,493.037z"/>
<path id="mt" fill="none" stroke="#BEE0ED" stroke-width="2" stroke-linejoin="round" d="M608.933-21.084v0.888l-7.564,108.361
	l-2.328,33.794l-0.868-0.066l-34.183-2.577l-50.066-4.897l-45.172-5.338l-48.47-6.716l-2.701,17.842
	c-4.377-4.03-7.688-15.951-11.124-3.333c-7.152-1.497-32.244-6.766-34.934,0.888c-2.296-2.45-5.093-6.982-4.118-10.236
	c2.292-7.624-6.711-5.599-8.008-10.345c-2.469-9.054-1.715-22.668-7.23-31.039c-27.503,15.062-7.89-22.102-3.785-36.047
	c-9.13-0.497-9.01-5.919-12.684-12.236c-4.998-8.592-11.101-14.396-16.023-22.473c0.819-0.146,1.631-0.3,2.448-0.445
	c-0.255-4.866-7.149-16.341-6.336-20.38c2.336-11.6,4.676-23.198,7.003-34.801l34.939,6.897l61.408,10.456l53.848,7.79l34.936,4.225
	l37.156,4.232l46.504,4.228L608.933-21.084"/>
<path id="nc" fill="none" stroke="#BEE0ED" stroke-width="2" stroke-linejoin="round" d="M1375.688,370.079
	c0,0,0.761,2.091,4.044,5.376c0,0,4.592,3.458,4.832,8.922c0,0-1.669-2.97-6.661-0.721c0,0-4.86,2.868-8.989,5.878
	c0,0-3.115,4.746-10.098,0.107c0,0,0.546,6.027,13.291,3.798c0,0,3.676-1.865,9.467-1.865c0,0,3.363,0.541,4.899-1.625
	c0,0,5.333,4.331,3.406,11.09c0,0-0.868,7.435-8.306,11.591c0,0-2.137,2.418-24.439,0.626l16.108,5.32c0,0-0.718,4.685-2.688,7.362
	c0,0-1.148,4.847-7.527,4.847c0,0,5.203,1.933,12.667-3.756c0,0,4.953-2.507,4.953,1.396c0,0-0.045,3.898-5.266,8.155
	c0,0-7.817,4.057-13.368,5.501c0,0-9.121,5.58-16.413,15.395c0,0-4.18,5.956-4.18,12.13c0,0,1.71,1.733-3.69,6.181
	c0,0-8.178,1.313-15.005,4.422l-38.039-27.14l-32.27,5.115c-0.586-6.594-7.918-9.116-7.918-9.116
	c-5.795-1.679-33.737,1.284-33.737,1.284c-7.853,1.161-12.74,5.024-12.74,5.024c-2.833,2.189-4.642,2.708-4.642,2.708
	c-5.288,1.021-9.274,4.326-9.274,4.326l-35.603,5c0,0-0.886-4.872,2.228-9.422c0,0,2.274-1.061,4.847-5.68
	c0,0,0.591-5.681,8.576-7.743c0,0,5.676-1.026,10.112-5.465c0,0,7.007-4.59,11.512-10.771c0,0,2.492-3.77,4.642-3.864
	c0,0,3.669,1.352,7.732-2.702c0,0,4.752-3.349,8.368-4.505c0,0,9.35-8.146,9.718-17.914l41.721-6.575l59.412-10.639l58.79-12.062"/>
<path id="nd" fill="none" stroke="#BEE0ED" stroke-width="2" stroke-linejoin="round" d="M772.696-15.076
	c-0.802,3.803,2.853,8.105,2.899,12.016c0.027,2.435-1.408,3.993-1.002,6.562c0.399,2.562,0.352,5.308,0.22,7.9
	c-0.502,9.994,8.541,19.032,6.562,28.926c-0.712,3.575,0.623,9.171,1.12,12.905c0.702,5.399,0.73,10.531,0.877,16.314
	c0.118,4.438,2.981,7.101,4.46,11.052c1.618,4.345,1.613,10.255,1.335,14.018l-46.954-0.223L695.94,93.28l-49.841-2.225
	l-44.726-2.893l7.564-108.36v-0.889v0.889v-0.889l37.602,2.45l56.519,2.446l48.283,1.113L772.696-15.076"/>
<path id="ne" fill="none" stroke="#BEE0ED" stroke-width="2" stroke-linejoin="round" d="M811.638,287.748
	c0-1.953-2.057-3.711-2.472-6.22c-1.667-10.07,1.809-25.612-6.646-28.041c-0.661-8.093-1.715-11.421-4.9-18.688
	c-1.506-3.444-3.578-13.384-4.975-15.896c-3.476-1.481-7.563-4.876-10.151-7.472c-2.181-2.176-6.64-1.481-9.22-3.753
	c-4.702-4.151-10.493-1-16.495-1.853c-2.419-0.345-2.719,3.201-5.44,2.937c-2.924-0.279-7.162-3.905-9.788-5.338l-2.896-2.89
	l-29.144-0.445l-43.836-1.556l-45.393-2.447l-27.144-2.004l-4.893,72.535l24.698,1.783l29.031,1.427l-1.889,36.398l34.938,1.781
	l67.64,1.782l35.376,0.223l46.06-0.447c-3.571-2.382-2.43-7.331-5.783-9.681C815.111,297.632,811.811,292.042,811.638,287.748z"/>
<path id="nh" fill="none" stroke="#BEE0ED" stroke-width="2" stroke-linejoin="round" d="M1459.353,111.973
	c0,0-3.709,0.217-6.749,4.516c0,0-2.229,3.646-4.379,5.279l-29.595,6.898c-6.493-4.971-2.442-9.792-2.442-9.792
	c-1.016-4.423-1.877-11.316-1.877-11.316c-1.056-4.636-0.865-10.432-0.865-10.432c1.059-6.374,1.85-8.497,1.85-8.497
	c1.403-7.91,1.333-10.919,1.333-10.919c-2.697-7.828,1.938-10.424,1.938-10.424c8.306-6.858,4.349-11.88,4.349-11.88
	c-2.414-3.09-1.258-5.018-1.258-5.018c0.768-2.897,0.225-4.986,0.225-4.986c-0.958-1.582-0.353-3.287-0.353-3.296
	c0,0-0.056-3.018,0.415-7.27c0,0,0.32-2.147,1.302-3.137c0,0,0.817-1.099,2.938-1.581c0,0,1.964-0.32,2.903-0.914l17.584,53.177
	l2.67,6.898c0,0-0.585,6.626,6.209,10.262c0,0,0.468,3.167,3.804,4.866l1.111,0.664
	C1460.464,105.075,1458.957,109.452,1459.353,111.973z"/>
<path id="nj" fill="none" stroke="#BEE0ED" stroke-width="2" stroke-linejoin="round" d="M1375.018,241.252
	c-0.908,2.064-0.876,2.861-0.876,2.861c0,2.122-3.355,4.262-3.355,4.262c-3.339,1.366-3.991,3.462-3.991,3.462
	c-1.129,2.739-2.005,6.101-2.005,6.101c1.071,2.137,0.881,4.228,0.881,4.228c4.965,4.247,13.131,8.669,13.131,8.669
	c2.928-1.474,6.899-1.11,6.899-1.11c1.318,2.052,0.017,6.438,0.017,6.438c0.013,2.988,2.428,2.019,2.428,2.019
	c3.476-5.52,4.905-14.476,4.905-14.476c0.678-2.424,3.991-7.103,3.991-7.103c0.7-3.778,4.229-10.458,4.229-10.458
	c2.218-6.847-0.668-25.588-0.668-25.588c-3.168,0-8.684-0.445-8.684-0.445c-0.455-5.362,1.337-9.121,1.337-9.121
	c2.715-0.577,2.678-3.562,2.678-3.562c0.92-2.707,0.891-8.23,0.891-8.23l-24.031-7.788c-3.686,3.342-3.338,7.342-3.338,7.342
	c-1.329,4.974-4.893,8.235-4.893,8.235c4.069,4.074,1.299,8.891,1.299,8.891c-0.192,5.02,4.893,9.079,4.893,9.079
	c2.585,2.317,10.825,8.421,10.825,8.421C1379.665,236.587,1375.018,241.252,1375.018,241.252"/>
<path id="nm" fill="none" stroke="#BEE0ED" stroke-width="2" stroke-linejoin="round" d="M537.067,590.8l-29.82-2.447l-23.134-2.442
	c-0.197,1.617,0.668,3.354,1.123,4.86l0.21,0.692c1.104,0.904,2.201,1.854,3.299,2.846l0.016,0.015l-52.342-5.623l-1.842,16.094
	l-25.676-3.091l0,0l25.812-204.039l47.168,5.565l42.056,4.222l50.732,4.229l32.039,1.997l-1.115,18.247l-1.335-0.085l-5.561,90.198
	l-2.888,32.933l-2.626,39.998l-29.638-1.946L537.067,590.8z"/>
<path id="nv" fill="none" stroke="#BEE0ED" stroke-width="2" stroke-linejoin="round" d="M267.39,432.604
	c-0.851,4.902-3.101,5.152-3.338,12.459l-35.601-52.516l-84.109-122.601l6.012-24.026l19.803-81.662l45.389,10.682l32.264,6.896
	l42.279,8.679l35.601,6.455l-32.042,179.113c-1.589,8.764-1.283,22.5-6.229,29.928c-7.201,10.811-7.703-6.241-16.464-2.117
	c-5.766,2.718-2.875,12.886-3.339,18.474C267.367,425.309,267.849,429.94,267.39,432.604z"/>
<g id="ny">
	<path id="ny_1_" fill="none" stroke="#BEE0ED" stroke-width="2" stroke-linejoin="round" d="M1398.378,132.891l-0.653,24.692
		l0.884,1.339l4.672,26.032c0,0,1.759,1.433,1.278,4.897c0,0-0.162,0.448-2.75,3.029c0,0-1.544,0.858-0.26,2.135l1.954,1.957
		l-0.053,0.09c0,0-1.651,3.059-2.18,4.897c0,0-0.315,1.769-1.523,2.972c0,0-1.677,1.311-2.683,2.724c0,0,1.426-8.182-1.076-15.172
		c0,0-0.977-1.222-1.852-1.847c0,0-1.229-1.041-1.229-2.44c0,0-1.242,1.748,2.151,5.629c0,0,1.313,2.469,1.76,5.374l-24.031-7.788
		c-1.504-1.945-3.503-1.643-5.991-2.688c-3.931-1.655-3.573-2.937-5.583-5.991c-3.73-5.661-6.091-6.168-10.462-10.232l-24.472,5.558
		l-36.941,7.788l-32.702,6.453l-21.363,3.785l-1.557-8.455l-0.225-0.89c0,0,14.597-14.601,19.111-22.474c0,0-0.09-7.903-1.635-9.452
		c0,0-3.903-2.155-4.805-6.016c0,0-1.561-4.21,16.731-9.059c0,0,12.112-1.501,21.642-0.988c0,0,8.656,0.404,16.273-2.943
		c0.05-0.02,0.104-0.045,0.155-0.071c7.647-3.423,16.849-16.074,13.32-22.606c0,0-2.237-5.883-4.127-8.628
		c0,0-1.19-2.101,0.32-4.189c0,0,5.996-5.646,8.701-11.029c0,0,8.113-24.803,25.888-27.132l30.833-7.8
		c1.584,2.993,2.545,10.137,2.545,10.137c1.602,6.355,3.118,8.304,3.118,8.304c1.349,3.959,1.254,8.403,1.254,8.403
		c-0.483,4.729,1.16,9.558,1.16,9.558c1.342,3.766,2.32,7.813,2.32,7.813c-0.271,5.206,1.134,6.262,1.134,6.262
		c1.544-5.042,4.547,1.205,4.547,1.205l5.052,23.075L1398.378,132.891"/>
	<path id="long_island_5_" fill="none" stroke="#BEE0ED" stroke-width="2" stroke-linejoin="round" d="M1401.724,205.204
		c0,0-3.879,1.807-4.749,5.075c0,0-0.773,2.157,0.485,2.883c0,0,2.287,0.465,4.389-0.195c0,0,5.488-2.362,11.776-5.841
		c0,0,5.32-3.285,8.121-4.974c0,0,5.46-2.947,8.931-4.203c0,0,2.995-1.257,4.3-3.184c0,0,0.482-0.966,1.861-1.863
		c0,0,3.809-1.309,10.851-8.9c0,0-2.649,1.563-4.592,2.056c0,0-2.71-0.183-5.125,1.991c0,0-2.51,4.6-6.526,5.125
		c0,0,2.953-2.616,4.062-6.67c0,0,0.953-2.372,1.922-3.868c0,0-4.792,6.526-9.126,9.106c0,0-4.268,1.506-7.527,2.342
		c0,0-2.175,0.21-4.438,2.135c0,0-0.773,0.907-5.315,2.699c0,0-2.507,0.627-4.153,0.771
		C1406.874,199.688,1403.565,201.738,1401.724,205.204z"/>
</g>
<path id="oh" fill="none" stroke="#BEE0ED" stroke-width="2" stroke-linejoin="round" d="M1139.162,221.222
	c2.205,1.549,8.604,2.22,8.604,2.22c4.662,0.881,9.465,3.283,9.465,3.283c10.332,3.766,12.654,1.636,12.654,1.636
	c5.653-5.176,12.447-5.211,12.447-5.211c4.396-0.87,8.519-4.229,8.519-4.229c2.438-3.553,5.235-6.353,5.235-6.353
	c5.628-4.786,19.386-12.263,19.386-12.263l8.246,48.059c-1.209,0.545-2.675,1.115-2.675,1.115s1.746,19.398-0.229,29.369
	c-1.251,6.35-2.465,8.548-5.928,14.142c-3.316,5.363-11.209,2.617-11.209,7.664c0,0.562-5.958,10.208-7.236,11.681
	c-3.101,3.587-4.484,1.46-6.119,7.897c-1.509,5.981,0.268,17.404-10.01,17.136l0.23,0.223c-2.322-2.588-11.736-10.847-14.356-8.458
	c-6.229,5.67-5.981,1.389-13.238,2.117c-3.363,0.338-16.046,1.434-19.171-2.658c-5.423-7.137-10.503-10.012-18.648-7.027
	l-11.123-94.116l24.248-4.005L1139.162,221.222"/>
<path id="ok" fill="none" stroke="#BEE0ED" stroke-width="2" stroke-linejoin="round" d="M852.578,476.879l0.42,64.248v-0.056
	c-2.404-1.105-5.06-1.456-7.647-3.112c-3.058-1.952-6.141-3.904-9.284-5.871c-5.75-3.599-4.449,0.16-7.517-0.25
	c-9.997-1.326-22.585-0.291-30.04,7.117c-2.422-1.494-6.771-5.866-8.455-6.672c-1.686-0.806-6.023-2.263-8.686-1.56
	c-2.663,0.704-9.849,12.32-8.68,2.226c-5.197,1.025-6.035-0.376-9.118-1.111c-4.054-0.966-3.925-4.752-8.194-0.483
	c-4.288,4.292-9.671-4.274-9.609-8.198c-3.101-0.268-11.216,2.726-12.683,1.444c-3.421-2.993-5.731-1.574-10.136-3.043
	c-1.875-0.628-9.374-1.479-9.777-2.958c-0.974-3.543-1.55-6.041-4.786-8.123c-4.824,9.004-13.264-3.839-18.913-4.669l0.224-4.007
	l2.044-66.037l-17.179-0.27l-29.589-1.332l-39.388-2.227l1.115-18.248l28.039,1.781l45.611,2.002l64.75,1.555h65.193l35.601-0.674
	l0.447,18.028c0,0-0.05,4.224,1.656,10.364C848.006,446.755,852.027,464.187,852.578,476.879z"/>
<path id="or" fill="none" stroke="#BEE0ED" stroke-width="2" stroke-linejoin="round" d="M111.189-9.069
	c-1.015,4.638-2.567,9.135-4.563,13.13c-1.092,2.184-2.484,8.453-3.227,11.344c-4.725,21.177-16.212,40.215-23.877,60.69
	c0.125,3.416-4.377,9.45-5.553,10.196c-1.389,0.853-1.717,0.312-2.389,0.98c-2.482,5.215-4.697,9.668-8.202,14.228
	c-2.571,3.339,1.055,7.918,0.081,11.473c-1.97,7.211-7.959,16.703-0.112,22.806l-1.11-0.225l1.11,0.225l57.854,16.018l48.951,12.458
	l45.39,10.682l32.264,6.896l13.348-64.079c2.552-3.018,3.87-6.243,4.228-10.238c0.261-2.861,2.171-1.478,0.446-4.671
	c-0.748-1.384-3.949-1.293-4.448-2.227c-4-7.438,6.534-14.204,10.568-18.688c5.388-5.985,7.953-14.695,13.588-21.028
	c7.675-8.64-4.254-11.287-4.579-20.136l-29.144-6.008l-22.701-5.338c-11.661,1.125-25.388,2.029-37.824,1.778
	c-12.359-0.247-20.126-5.966-32.485-8.678c-5.907-1.296-10.834,4.203-17.354,0.221c-10.651-6.503-1.74-10.99-6.678-20.912
	c-2.782-5.586-15.751-8.638-21.135-10.015c-0.448,0.756-0.228,1.425,0.666,2.002C113.346-6.976,112.39-8.252,111.189-9.069"/>
<path id="pa" fill="none" stroke="#BEE0ED" stroke-width="2" stroke-linejoin="round" d="M1375.018,241.252
	c0,0,4.645-4.665,6.564-7.873c0,0-8.238-6.104-10.823-8.421c0,0-5.088-4.059-4.893-9.079c0,0,2.771-4.815-1.299-8.891
	c0,0,3.568-3.262,4.893-8.235c0,0-0.355-4,3.338-7.342c-1.504-1.945-3.503-1.643-5.991-2.688c-3.931-1.655-3.57-2.937-5.58-5.991
	c-3.73-5.662-6.091-6.168-10.463-10.232l-24.471,5.558l-36.941,7.788l-32.704,6.453l-21.363,3.785l-1.555-8.455l-0.225-0.89
	l-7.788,6.23l-7.117,5.561l-3.12,1.782l8.245,48.06l5.773,32.931l28.258-5.118l46.723-8.897l52.962-11.343
	c1.682-9.466,9.132-5.343,9.132-5.343s2.295-2.863,5.154-4.07C1371.727,246.524,1372.62,243.653,1375.018,241.252"/>
<path id="ri" fill="none" stroke="#BEE0ED" stroke-width="2" stroke-linejoin="round" d="M1447.776,173.832
	c0,0,6.619-3.716,8.791-5.564c0,0,0.815-1.272-0.192-5.957c0,0-0.381-2.411-1.299-4.105c0,0-0.391-0.89,0.425-2.229
	c0,0,1.066-1.281,2.3-1.281c-2.057-1.822-3.568-5.118-3.568-5.118c-0.783-1.773-2.885-2.893-2.885-2.893l-8.914,2.67l5.798,20.465
	C1448.236,169.819,1447.333,171.151,1447.776,173.832"/>
<path id="sc" fill="none" stroke="#BEE0ED" stroke-width="2" stroke-linejoin="round" d="M1265.994,558.769
	c0,0-6.982-1.874-9.577-8.042c0,0-0.235-4.004-4.149-7.921c0,0-4.454-1.301-5.851-7.415c0,0-0.397-5.312-10.17-11.501
	c0,0-2.402-0.175-9.762-10.625c0,0-1.919-2.91-12.262-10.923c0,0-15.818-8.464-18.781-18.381c0,0-1.366-3.368-6.219-3.368
	c0,0-8.397-2.062-10.673-7.505c0,0,1.875-6.994,5.561-10.678c0,0,3.991-3.306,9.274-4.329c0,0,1.804-0.519,4.642-2.703
	c0,0,4.883-3.866,12.742-5.027c0,0,27.94-2.966,33.738-1.284c0,0,7.33,2.518,7.918,9.114l32.267-5.115l38.039,27.145
	c0,0-12.332,10.312-13.838,24.488c0,0-2.19,7.911-11.329,18.416c0,0-14.036,17.142-25.359,17.382c0,0,7.75,2.197,4.257,6.249
	c0,0-3.294,5.43-10.794-3.571c0,0,0.641,5.573,5.456,8.466C1271.113,551.642,1267.18,553.874,1265.994,558.769"/>
<path id="sd" fill="none" stroke="#BEE0ED" stroke-width="2" stroke-linejoin="round" d="M601.37,88.165l-2.327,33.794l-0.883-0.066
	l-5.025,72.183l27.144,2.004l45.393,2.446l43.836,1.555l29.144,0.447l2.895,2.89c2.624,1.433,6.864,5.059,9.789,5.338
	c2.721,0.264,3.022-3.286,5.44-2.937c6.002,0.854,11.792-2.296,16.495,1.854c2.58,2.272,7.04,1.58,9.22,3.753
	c2.587,2.594,6.673,5.988,10.154,7.472c-2.673-7.154-5.173-13.842-1.254-20.375c1.64-2.736-2.247-11.833-3.114-15.798h4.003
	l-0.448-64.97c-2.317-3.736-5.891-3.891-5.891-3.891c-1.579-3.373-4.564-6.789-4.564-6.789c0-3.406,4.976-6.211,4.976-6.211
	c3.2-1.758,2.814-6.248,2.814-6.248l-46.953-0.223l-46.275-1.115l-49.841-2.225L601.37,88.165z"/>
<path id="tn" fill="none" stroke="#BEE0ED" stroke-width="2" stroke-linejoin="round" d="M979.707,473.016
	c0,0-0.41-3.464,1.611-6.159c0,0,4.106-9.021,6.777-19.341c4.198-9.252,4.419-16.227,4.419-16.227
	c1.091-1.616,2.918-2.472,2.918-2.472l39.386-3.339l-0.318-5.705c51.155-3.749,93.917-8.608,125.123-12.758
	c36.325-4.824,56.98-7.715,56.98-7.715l-0.36,0.054c-0.368,9.769-9.718,17.911-9.718,17.911c-3.61,1.159-8.365,4.505-8.365,4.505
	c-4.066,4.059-7.735,2.707-7.735,2.707c-2.149,0.096-4.64,3.861-4.64,3.861c-4.507,6.184-11.514,10.771-11.514,10.771
	c-4.437,4.438-10.112,5.466-10.112,5.466c-7.979,2.064-8.573,7.74-8.573,7.74c-2.575,4.622-4.85,5.688-4.85,5.688
	c-3.113,4.542-2.225,9.419-2.225,9.419l-37.832,4.78l-71.305,7.392l-25.26,2.405l-40.273,3.115c0,0,1.396-4.474,3.785-6.864
	C977.627,478.25,979.577,476.264,979.707,473.016z"/>
<path id="tx" fill="none" stroke="#BEE0ED" stroke-width="2" stroke-linejoin="round" d="M879.832,653.099
	c0.02,0.183,1.712,15.022-1.819,18.94c-3.563,3.889-3.764,5.769-3.764,5.769c-0.365,2.119,0.355,4.587,0.355,4.587
	c-12.297,0.085-17.327,8.979-26.919,6.977c-7.615-12.417-4.364,6.231-7.009,10.018c-7.425,10.623-32.122,24.699-32.817,24.699
	s-0.655-0.844-2.675-1.779c-2.022-0.934-14.302,0.511-8.235,6.456c-13.715,6.949-15.693,9.895-25.581,22.915
	c-6.619-2.57-4.082,7.945-7.121,17.577c-2.098,6.632-3.925,9.629-4.233,15.572c-0.308,5.941,9.074,25,6.455,37.156
	c-5.702-1.849-9.983-7.737-16.69-7.452c-9.14,0.378-17.448-8.253-24.356-7.007c-14.955,2.695-18.365-19.802-25.487-28.7
	c-2.218-2.79-2.123-10.903-1.891-13.471c0.89-9.765-10.13-8.148-11.897-17.014c-2.04-10.2-14.632-21.019-18.696-31.15
	c-10.052-25.115-31.511-49.269-58.292-41.271c-9.46,2.817-20.749,16.541-23.923,26.03c-2.215,6.651-32.095-17.654-35.486-20.022
	c-14.87-10.405-12.843-35.104-26.037-48.843c-12.585-13.098-25.136-30.88-38.271-41.61l-0.21-0.695
	c-0.454-1.507-1.32-3.246-1.122-4.857l23.134,2.442l29.82,2.445l26.478,2.231l29.638,1.95l2.626-39.999l2.888-32.933l5.561-90.198
	l1.335,0.085l39.389,2.225l29.589,1.334l17.179,0.268l-2.044,66.04l-0.224,4.004c5.65,0.836,14.088,13.676,18.912,4.669
	c3.236,2.085,3.812,4.585,4.786,8.123c0.403,1.481,7.903,2.333,9.777,2.961c4.402,1.469,6.713,0.053,10.137,3.045
	c1.465,1.276,9.578-1.722,12.681-1.446c-0.063,3.924,5.323,12.49,9.609,8.198c4.27-4.274,4.141-0.48,8.194,0.48
	c3.083,0.735,3.921,2.143,9.118,1.113c-1.167,10.093,6.017-1.528,8.68-2.225c2.663-0.7,7,0.754,8.689,1.557
	c1.682,0.809,6.03,5.18,8.447,6.674c7.458-7.414,20.043-8.443,30.042-7.119c3.065,0.41,1.765-3.351,7.521,0.253
	c3.147,1.97,6.23,3.916,9.283,5.87c2.593,1.654,5.246,2.005,7.65,3.113c0.804,0.373,1.469,0.831,2.247,1.444
	c1.376,1.104,7.88-0.483,10.901,0.668l0.673,19.581l1.11,36.714c6.697,4.479,7.653,12.965,10.681,19.142
	c3.153,6.436,4.83,9.744,5.115,16.016C884.009,640.809,878.999,647.5,879.832,653.099z"/>
<polyline id="ut" fill="none" stroke="#BEE0ED" stroke-width="2" stroke-linejoin="round" points="452.958,253.262 434.713,397.667 
	395.773,392.552 358.168,386.991 319.672,380.754 293.643,376.084 325.687,196.971 335.921,198.976 373.3,205.204 404.451,209.876 
	399.109,245.922 452.958,253.262 "/>
<g id="va">
	<path id="va_eastern_shore" fill="none" stroke="#BEE0ED" stroke-width="2" stroke-linejoin="round" d="M1376.469,341.246
		c-0.745,4.465-2.242,6.298-4.033,8.861c-4.512-16.479,4.669-24.593,1.006-30.404l1.309-1.133l7.47-2.455
		C1381.997,322.352,1378.549,328.878,1376.469,341.246z"/>
	<path id="va_mainland" fill="none" stroke="#BEE0ED" stroke-width="2" stroke-linejoin="round" d="M1159.617,407.016
		c36.326-4.822,56.98-7.712,56.98-7.712l41.366-6.521l59.413-10.64l58.792-12.062h-0.48c0,0-1.441-4.782-7.345-10.463
		c0,0-3.914-3.895-4.625-8.595c0,0-3.663-1.205-4.331-5.462c0,0-1.313-0.398,3.328-2.33c0,0,0.503-3.734-0.776-5.413
		c0,0-4.504,0.139-3.613-5.873c0,0,1.81-5.067,0.65-8.03c0,0-3.09-0.648-6.946-2.45c0,0-1.557-1.061-4.507-4.254
		c0,0-8.12,2.455-13.268-5.018c0,0-1.207-0.428-2.963,0.516c0,0-3.576,3.257-5.486,1.337c0,0-2.447-4.095,1.822-11.828
		c0,0,6.914-5.782-0.44-10.907c0,0-6.071-3.299-9.352-2.666c0,0-2.39-0.862-2.002-3.786c0,0-1.852-5.03-8.233-3.784
		c0.283,14.952-11.584-3.813-17.352,0.894c-1.952,1.594-1.927,14.543-5.112,18.468c-5.13,6.315-10.022,6.993-11.574,15.57
		c-2.175,11.993-12.59-2.152-13.708,4.526c-1.715,10.336-7.272,18.237-9.875,27.741c-0.785,2.853,0.599,9.492-0.67,11.57
		c-2.01,3.306-7.293,3.007-10.2,5.472c-3.003,2.557-12.423,6.088-19.281,6.669c-11.129,0.474-15.729-3.305-17.737-4.39
		c0,0-9.052,11.211-15.02,14.123c0,0-3.151,2.791-5.148,8.646c0,0-3.363,8.91-22.279,16.652"/>
</g>
<path id="vt" fill="none" stroke="#BEE0ED" stroke-width="2" stroke-linejoin="round" d="M1421.523,42.106
	c0,0-0.604,1.714,0.355,3.296c0,0,0.543,2.085-0.229,4.986c0,0-1.153,1.927,1.259,5.018c0,0,3.959,5.022-4.347,11.88
	c0,0-4.637,2.596-1.937,10.424c0,0,0.069,3.009-1.334,10.919c0,0-0.791,2.127-1.85,8.497c0,0-0.19,5.796,0.866,10.432
	c0,0,0.861,6.891,1.874,11.316c0,0-4.049,4.821,2.445,9.792l-20.253,4.228l-1.336-3.783l-5.053-23.075c0,0-3.005-6.248-4.547-1.205
	c0,0-1.408-1.056-1.131-6.262c0,0-0.98-4.049-2.322-7.813c0,0-1.642-4.831-1.161-9.558c0,0,0.095-4.444-1.254-8.403
	c0,0-1.517-1.949-3.118-8.305c0,0-0.961-7.145-2.545-10.137L1421.523,42.106"/>
<path id="wa" fill="none" stroke="#BEE0ED" stroke-width="2" stroke-linejoin="round" d="M129.205-2.963
	c-3.752-1.22-4.073-3.934-7.557-5.661c-4.497-2.221-7.92-2.316-12.461-3.782c0.963-3.928,1.927-7.861,2.893-11.793
	c-0.428,1.915-0.1,4.751-0.443,6.898c0.524,0.329,2.587,0.327,3.561-1.46c2.14-11.588-3.664-10.419-1.337-16.116
	c2.67,2.253,2.55,0.728,7.79,0.224c-1.506-1.525-4.682-3.724-6.678-4.9c-0.22,0.743-0.44,1.486-0.666,2.226
	c-1.192-9.486,2.347-22.058-0.447-32.264c-3.477-12.715,1.64-12.523,0.447-20.246c6.185,4.174,11.478,11.634,18.69,13.796
	c5.911,1.771,17.435,3.644,17.579,8.897c1.142,0.763,2.088,1.228,4.002,2.673c0.787-2.399,1.514-2.208,2.67-4.228
	c0.212,5.883,0.841,6.478,2.672,9.568c1.641,5.122,0.766,4.467-3.339,5.562c-0.191,1.079,0.159,3.485,0.227,4.675
	c-0.746-0.224-0.554,1.215-0.554,2.029c0.813,3.822,2.227,3.572,2.227,7.823c-0.82-0.517,1.188,1.76,2.778-1.179
	c1.355-2.511-0.536-7.984,0-9.563c1.227-3.644,6.896-7.311,6.227-12.685c-0.218-1.778-0.669-11.244-0.669-14.239
	c0.185-2.362-0.133-1.448,0.503-3.724c6.028-5.255-6.912-10.955-1.615-16.972l32.263,8.68l36.492,9.123l42.278,9.791l22.688,4.673
	l-0.218,1.336l-17.353,80.986l-0.895,7.342c-2.076,3.244,0.828,7.621-0.304,11.7l0.304,4.541l-29.144-6.008l-22.701-5.338
	c-11.662,1.125-25.389,2.03-37.825,1.778c-12.359-0.247-20.126-5.966-32.485-8.677c-5.906-1.296-10.834,4.203-17.353,0.221
	c-10.652-6.504-1.741-10.991-6.678-20.913C133.839-0.039,131.76-1.628,129.205-2.963"/>
<path id="wi" fill="none" stroke="#BEE0ED" stroke-width="2" stroke-linejoin="round" d="M936.354,206.426
	c-2.772-1.262-4.347-7.974-4.667-10.864c-0.482-4.398,1.039-7.703,0.105-11.496c-0.426-1.739-1.854-2.375-3.115-5.786
	c-1.532-5.484-0.991-11.68-5.341-16.021c-4.106-4.103-9.802-4.284-13.271-9.722c-2.34-3.68-10.47-10.404-14.544-11.081
	c-9.206-1.529-8.065-6.341-9.121-12.792c-1.252-7.658,1.767-16.375,1.771-17.802s-6.462-6.143-6.462-8.568
	c0-2.43,2.831-4.188,3.349-6.785c1.494-7.545,11.448-2.345,10.946-15.01c-0.315-7.908-2.436-14.078,3.513-18.811
	c4.239,6.699,17.923-1.878,22.92-4.448c2.069-1.066,8.36-7.073,10.013-2.67c0.665,1.791-1.592,3.301-2.005,4.673
	c-0.647,2.161-0.125,3.944-1.554,6.007c2.63,0.492,3.938-1.466,6.477-1.004c2.442,0.44,4.184,1.611,6.866,1.673
	c2.223,1.11,5.143,2.701,6.483,4.936c2.926,4.863,6.975,4.248,12.551,5.312c7.352,1.405,21.565,8.436,28.582,6.327
	c2.253-0.674,8.722,0.715,10.681,1.893c2.282,1.369,0.075,4.746,2.673,5.005c2.212,0.223,4.254,0.843,5.896,2.34
	c4.074,3.708-3.669,15.354,5.896,12.01c-2.257,3.934-1.656,7.72,2.453,9.346c-0.078,4.851-4.99,6.545-6.897,10.903
	c-2.667,6.076-2.595,14.368,3.554,6.007c2.297-3.105,6.734-14.589,10.57-6.12c1.907,4.206-3.213,12.203-3.443,17.023
	c-0.145,2.957,3.346,4.356,0.445,6.673c-2.412,1.934-3.338,6.122-3.338,9.123c0,6.018,1.021,10.944-0.858,16.845
	c-2.234,7.044-0.473,11.897,1.304,17.869c1.587,5.34,1.512,10.222,2.447,16.241l-32.938,2.891l-42.048,2.444
	c0,0-1.052-1.919-1.497-2.895c-0.447-0.976-0.971-0.938-1.874-1.458c0,0-0.513-0.222-2.495-0.702
	C940.389,207.932,937.719,207.346,936.354,206.426z"/>
<path id="wv" fill="none" stroke="#BEE0ED" stroke-width="2" stroke-linejoin="round" d="M1257.761,276.181l3.113,18.691
	c5.037-7.086,10.02-11.942,10.02-11.942c3.466-0.355,5.966-4.468,5.966-4.468c-0.266-1.866,0.37-1.992,0.726-2.132
	c0.363-0.141,1.337,0.345,1.337,0.345c3.08,2.206,6.783,1.394,6.783,1.394c5.021-10.234,12.881-6.375,12.881-6.375
	c7.076,3.032,9.011,9.381,9.011,9.381c0.283,14.952-11.583-3.813-17.352,0.894c-1.954,1.594-1.927,14.543-5.112,18.468
	c-5.131,6.313-10.022,6.993-11.576,15.57c-2.173,11.992-12.588-2.152-13.706,4.526c-1.714,10.336-7.272,18.237-9.875,27.741
	c-0.786,2.853,0.599,9.492-0.671,11.57c-2.012,3.306-7.292,3.005-10.199,5.472c-3.003,2.557-12.425,6.088-19.281,6.669
	c-11.129,0.474-15.729-3.306-17.738-4.39c-3.553-2.306-8.36-3.756-16.639-14.316c0,0-4.294-4.507-4.669-8.631
	c0,0,1.626-3.025-0.218-7.049l-0.232-0.223c10.277,0.271,8.498-11.155,10.007-17.135c1.637-6.437,3.021-4.311,6.121-7.898
	c1.278-1.473,7.234-11.119,7.234-11.68c0-5.047,7.893-2.301,11.208-7.664c3.467-5.592,4.673-7.792,5.929-14.143
	c1.975-9.971,0.228-29.369,0.228-29.369s1.472-0.569,2.676-1.115l5.772,32.931L1257.761,276.181"/>
<polygon id="wy" fill="none" stroke="#BEE0ED" stroke-width="2" stroke-linejoin="round" points="598.16,121.893 593.135,194.076 
	588.243,266.61 545.966,263.275 522.603,261.051 478.769,256.38 452.958,253.262 399.109,245.922 404.451,209.876 417.58,120.206 
	420.281,102.364 468.753,109.083 513.925,114.42 563.991,119.317 598.175,121.896 "/>
</svg>
