<?xml version="1.0" encoding="utf-8"?>
<!-- Generator: Adobe Illustrator 16.0.0, SVG Export Plug-In . SVG Version: 6.00 Build 0)  -->
<!DOCTYPE svg PUBLIC "-//W3C//DTD SVG 1.1//EN" "http://www.w3.org/Graphics/SVG/1.1/DTD/svg11.dtd">
<svg version="1.1" id="Layer_1" xmlns="http://www.w3.org/2000/svg" xmlns:xlink="http://www.w3.org/1999/xlink" x="0px" y="0px"
	 width="300px" height="300px" viewBox="0 0 300 300" enable-background="new 0 0 300 300" xml:space="preserve">
<g id="Apple_1_">
	<g>
		<path fill="#2D261F" d="M153.743,77.859c3.341-8.056,3.539-25.25,0.366-33.614c0,0-0.771-1.506,0.681-1.79
			c1.457-0.275,4.754-1.397,5.358-1.031c0.607,0.372,0.828,0.772,0.725,1.224c-0.111,0.469-0.288,0.546-0.355,1.193
			c-0.076,0.65-4.186,27.178-1.396,32.002"/>
		<path fill="#E8DFB1" d="M197.111,100.193"/>
		<path fill="#E8DFB1" d="M92.383,200.561c6.244,7.617,14.831,8.131,17.181,9.035c2.347,0.908,13.018,0.848,16.904,1.18
			c3.891,0.328,8.891,3.57,14.565,6.591c5.677,3.03,39.283,0.35,43.185,0.11c3.898-0.235,27.591-6.05,28.097-6.033
			c0.508,0.01,4.961-1.904,5.17-3.422c0.215-1.523,2.978-3.652,3.52-4.875"/>
		<path fill="#E8DFB1" d="M221.547,202.917l-7.582-5.269c-3.221,0.088-7.388-1.146-8.886-1.867l-29.712-20.141l-2.944-12.927
			l4.996-36.934l12.444-16.043l25.732-20.032c0.901-0.445,3.323-0.293,2.984-0.686c-4.366-4.983-15.875-8.419-25.577-9.604
			c-9.714-1.184-49.079-1.704-56.619-1.481c-7.539,0.228-23.854,5.563-25.484,6.362c-1.629,0.805-8.652,5.281-9.856,7.956
			c-1.216,2.679-0.608,3.809-0.608,3.809c0.335,1.168,3.998,1.556,3.998,1.556l21.626,11.179l7.835,35.07l4.435,10.213
			l-4.792,15.896l-22.412,23.309l-18.734,7.271"/>
		<path fill="#F34044" d="M100.384,95.957c0,0-1.157-3.151-0.173-4.991c0.984-1.836,2.47-4.287,3.523-5.615
			c1.047-1.32,9.347-6.667,21.038-7.208c11.703-0.535,12.191-2.899,15.603-3.826c3.405-0.925,14.885-1.977,19.684-1.513
			c4.812,0.462,8.678,1.324,12.07,1.245c3.396-0.08,6.878-0.575,9.238-0.011c2.352,0.571,4.501,2.491,8.395,2.594
			c3.891,0.098,9.44,1.862,11.776,3.013c2.338,1.174,14.694,4.219,17.058,9.45c-1.052-0.87-6.716-3.616-11.47-5.43
			c-4.743-1.816-9.771-1.953-10.856-2.146c-1.09-0.199-0.862,1.498-0.537,1.851c0.324,0.342,0.848,2.154-0.045,1.855
			c-0.895-0.298-2.355,1.517-2.971,1.5c-0.626-0.015,0.694,2.216-0.076,2.596c-0.766,0.377-5.565,1.291-6.623,1.804
			c-1.055,0.505-2.533,0.867-3.854,0.466c-1.312-0.396-5.929-0.889-6.755-0.459c-0.832,0.43-3.631,3.858-4.139,5
			c-0.516,1.146-1.541,0.44-1.541,0.44s-2.474-1.705-3.799-2.538c-1.332-0.823-3.55-2.463-5.666-3.531
			c-2.119-1.077-6.656-4.467-9.883-6.468c-3.222-2.003-9.183-2.838-12.895-3.387c-3.708-0.546-9.229-1.143-18.192,4.72
			c-8.958,5.864-11.405,4.328-13.548,4.278C103.62,89.587,100.53,94.609,100.384,95.957z"/>
		<path fill="#F34044" d="M92.638,199.387c0,0-0.703,1.278-0.298,1.844c0.41,0.558,4.406,4.77,5.32,5.508
			c0.915,0.75,6.824,6.142,14.485,9.185c4.831,1.929,8.752,3.558,13.735,4.601c4.866,1.65,7.651,0.584,10.48,0.697
			c3.791,0.17,15.755-2.162,19.58-2c3.844,0.164,8.886,2.703,14.771,3.271c6.504,0.623,17.337,1.086,20.053,0.705
			c2.719-0.385,6.036,0.177,12.438-2.684c7.879-3.52,11.129-8.302,12.093-9.168c0.145-0.134,1.919-2.179,1.919-2.179
			s2.332-4.051,3.101-5.022c0.316-0.399,0.502-0.424,0.697-1.006c0.027-0.082,0.137-0.336,0.066-0.306
			c-0.251,0.097-3.65-0.433-3.908-0.467c-1.072-0.156-6.554,6.055-6.62,6.06c-1.585,0.111-5.868,0.946-7.437-0.699
			c-1.811-1.903-3.605-4.694-4.293-4.264c-0.69,0.439-1.299,1.408-2.674,2.051c-1.377,0.641-0.662,2.436-1.824,3.76
			c-1.168,1.32-11.742-0.306-15.346-0.4c-3.617-0.096-20.5-2.113-23.645-2.654c-3.15-0.531-9.113-5.656-9.81-5.001
			c-0.688,0.669-9.59,4.042-11.597,3.267c-2.013-0.779-11.521,0.199-14.223-0.375c-2.694-0.573-1.503-2.696-2.854-2.959
			c-1.346-0.264-6.134,1.416-9.545,2.236c-3.409,0.812-9.476-0.258-10.161-0.267C96.468,203.102,92.608,200.746,92.638,199.387z"/>
		<path fill="#D3B48C" d="M136.561,100.3c2.508-9.293,15.105,8.607,14.957,14.365c-0.151,5.757-3.933,7.687-2.06,13.839
			c1.871,6.137-3.074,13.808-6.043,11.012c-2.973-2.782-8.453-13.431-7.032-16.103C137.81,120.746,135.905,102.743,136.561,100.3z"
			/>
		<path fill="#D3B48C" d="M152.041,159.049c-1.616,9.941-5.896,18.357-8.354,21.678c-2.459,3.325-10.225,6.229-10.489,7.574
			c-0.245,1.35,9.883,2.668,11.246,2.027c1.373-0.645,6.66-8.284,7.068-11.314c0.418-3.043,3.396-13.236,3.76-14.244
			c0.373-1.015-1.549-5.668-1.549-5.668L152.041,159.049z"/>
		<path fill="#D3B48C" d="M181.078,98.066c-1.665-1.3-2.985-2.534-5.098,0.55c-2.117,3.086-3.9,6.765-3.9,6.765
			s8.383,3.268,8.77,1.585c0.379-1.689-3.966-4.048,0.125-4.852c4.082-0.8,5.754-0.078,8.506-1.358
			c2.74-1.282,3.088-1.461,4.121-2.354c1.049-0.896,0.152-5.664,0.152-5.664s-1.979-2.08-2.711-0.072
			c-0.727,2.014-2.203,6.534-3.527,5.574C186.18,97.285,181.078,98.066,181.078,98.066z"/>
		<path fill="#D3B48C" d="M180.803,188.266c3.869,5.518,2.797,7.521,6.49,8.974c3.688,1.444,4.938,5.434,6.314,4.506
			c1.39-0.92-1.334-0.538-1.373,0.924c-0.039,1.47-2.084,1.757-3.45,2.392c-1.368,0.646-5.979-0.153-8.401-0.215
			c-2.425-0.064-7.134-1.547-7.134-1.547s-5.231-7.285-3.544-6.887c1.688,0.404,5.102-0.861,6.492-2.178
			C177.579,192.916,180.803,188.266,180.803,188.266z"/>
	</g>
</g>
</svg>
