<?xml version="1.0" encoding="utf-8"?>
<!-- Generator: Adobe Illustrator 16.0.0, SVG Export Plug-In . SVG Version: 6.00 Build 0)  -->
<!DOCTYPE svg PUBLIC "-//W3C//DTD SVG 1.1//EN" "http://www.w3.org/Graphics/SVG/1.1/DTD/svg11.dtd">
<svg version="1.1" id="Layer_1" xmlns="http://www.w3.org/2000/svg" xmlns:xlink="http://www.w3.org/1999/xlink" x="0px" y="0px"
	 width="300px" height="300px" viewBox="0 0 300 300" enable-background="new 0 0 300 300" xml:space="preserve">
<g id="Banana">
	<g>
		<path fill="#FFDD50" d="M36.061,165.76c0,0,10.753,31.2,55.487,4.517c10.266-6.127,24.472-16.401,29.592-38.182
			c2.54-10.797,4.662-48,13.978-53.345c9.312-5.327,13.428-5.372,17.887-9.168c4.463-3.785,8.075-16.563,8.075-16.563l10.885,2.144
			c0,0-6.796,10.062-5.45,16.632c1.02,4.978,3.596,5.653,8.89,8.243c8.312,4.069,22.459,35.478,27.502,53.412
			c5.063,17.93,7.1,35.257,27.44,46.156c4.647,2.489,17.345,3.18,20.806,2.236c8.274-2.261,12.775-11.309,15.735-15.187
			c3.044-3.967,3.996-4.547,5.068-3.856c1.739,1.099,2.568,32.492-14.597,38.133c-17.189,5.644-33.585,4.211-52.505-14.7
			c-18.451-18.445-25.352-33.743-30.778-51.476c0,0-7.483,25.395,1.026,46.628c8.457,21.083,10.839,22.225,16.008,26.629
			c5.75,4.896,13.063,8.534,23.322,9.56c10.268,1.011,10.689-0.118,12.085-0.131c1.406-0.011,2.813,1.521,2.823,2.791
			c0.026,1.256,0.912,6.174-2.695,9.854c-3.614,3.688-23.79,9.231-38.887,3.768c-15.086-5.478-34.164-16.518-41.021-42.441
			c-6.869-25.919-6.783-45.17-6.661-47.132c0,0-4.682,9.591-8.534,16.941c-3.853,7.342-24.707,29.659-35.534,33.699
			c-10.822,4.044-45.348,17.883-61.639-1.812c0,0-10.249-10.306-6.29-20.075C32.508,162.07,35.208,164.778,36.061,165.76z"/>
		<path fill="#302A0F" d="M168.394,75.916c-0.886-0.997-1.492-2.25-1.879-4.125c-1.342-6.562,5.45-16.633,5.45-16.633l-10.885-2.14
			c0,0-3.612,12.779-8.075,16.563c-1.333,1.129-2.633,1.937-4.051,2.639C152.509,74.791,158.822,77.609,168.394,75.916z"/>
	</g>
</g>
</svg>
