<?xml version="1.0" encoding="utf-8"?>
<!-- Generator: Adobe Illustrator 16.0.0, SVG Export Plug-In . SVG Version: 6.00 Build 0)  -->
<!DOCTYPE svg PUBLIC "-//W3C//DTD SVG 1.1//EN" "http://www.w3.org/Graphics/SVG/1.1/DTD/svg11.dtd">
<svg version="1.1" id="Layer_1" xmlns="http://www.w3.org/2000/svg" xmlns:xlink="http://www.w3.org/1999/xlink" x="0px" y="0px"
	 width="300px" height="300px" viewBox="0 0 300 300" enable-background="new 0 0 300 300" xml:space="preserve">
<g id="Beet_1_">
	<g>
		<path fill="#52A76C" d="M106.356,127.592c3.801-1.023,29.844,9.7,35.612,13.415c9.386,6.042,16.033,13.345,24.706,20.069
			c-9.715-4.979-13.676-6.934-31.536-7.801c-12.687-0.617-33.688-6.705-35.713-13.28c-0.308-0.997-0.477-1.975-0.489-2.91
			C98.802,131.837,103.309,128.527,106.356,127.592z"/>
		<path fill="#52A76C" d="M164.104,159.088c-3.399-5.705-10.313-11.116-15.48-19.544c-4.055-5.469-7.997-21.533-5.109-35.082
			c0.991-4.661,3.229-8.139,6.638-10.323c3.503-2.247,8.394-4.505,11.711-2.485c4.125,2.519,5.292,10.744,4.617,17.781
			C165.528,119.459,162.189,140.088,164.104,159.088z"/>
		<path fill="#52A76C" d="M56.086,48.539c0.006-0.604,0.025-1.18,0.05-1.736c0.734-11.528,8.688-12.345,16.774-12.194
			c5.153,0.096,23.126,19.184,26.792,27.252c3.591,7.922,41.112,69.119,53.146,83.059c7.427,8.604,10.886,12.671,12.386,14.457
			l-0.308,0.527c-10.605-8.79-58.13-48.344-73.365-63.264c-1.771-1.739-3.55-3.464-5.323-5.187
			C70.734,76.469,56.104,62.318,56.086,48.539z"/>
		<path fill="#E23C7B" d="M168.348,148.741c21.582-31.465,49.348-25.198,70.309-17.559c-19.787,11.121-45.262,42.897-49.97,49.398
			c-4.705,6.487-32.879,66.243-13.289,84.825c-5.798-5.418-11.727-11.72-17.982-18.381c-19.301-20.509-14.677-48.136-12.659-58.739
			C146.777,177.658,154.349,167.357,168.348,148.741z"/>
		<path fill="#B51561" d="M175.397,265.406c-19.586-18.575,8.38-79.32,13.085-85.808c4.712-6.494,30.446-38.768,50.174-48.409
			l-26.887,74.348L175.397,265.406z"/>
	</g>
</g>
</svg>
