<?xml version="1.0" encoding="utf-8"?>
<!-- Generator: Adobe Illustrator 16.0.0, SVG Export Plug-In . SVG Version: 6.00 Build 0)  -->
<!DOCTYPE svg PUBLIC "-//W3C//DTD SVG 1.1//EN" "http://www.w3.org/Graphics/SVG/1.1/DTD/svg11.dtd">
<svg version="1.1" id="Layer_1" xmlns="http://www.w3.org/2000/svg" xmlns:xlink="http://www.w3.org/1999/xlink" x="0px" y="0px"
	 width="300px" height="300px" viewBox="0 0 300 300" enable-background="new 0 0 300 300" xml:space="preserve">
<g>
	<g>
		<path fill="#FF5B29" d="M155.607,157.415c17.857,3.771,20.579,5.083,36.175,13.759l0,0c-0.042-0.037,0.381-0.674,0.428-0.815
			c4.001-14.146,10.906-30.263,11.462-44.747c0.834-21.632-1.589-20.792-17.138-29.28c-10.441-5.699-10.357-5.83-23.97-8.419
			c-53.88-9.401-53.332,9.84-60.281,28.752c-5.673,15.914-8.377,32.989-10.565,49.494
			C109.504,153.16,132.449,152.498,155.607,157.415z"/>
	</g>
	<g>
		<path fill="#EA4D28" d="M155.746,157.232c-23.15-4.912-46.165-4.166-63.949,8.827c38.186,24.091,44.238,26.911,50.282,27.706
			c3.376,0.445,16.822-4.937,49.992-22.957C176.471,162.13,173.611,161.004,155.746,157.232z"/>
	</g>
	<g>
		<g>
			<defs>
				<path id="SVGID_1_" d="M155.607,157.415c17.857,3.771,20.579,5.083,36.175,13.759l0,0c-0.042-0.037,0.381-0.674,0.428-0.815
					c4.001-14.146,10.906-30.263,11.462-44.747c0.834-21.632-1.589-20.792-17.138-29.28c-10.441-5.699-10.357-5.83-23.97-8.419
					c-53.88-9.401-53.332,9.84-60.281,28.752c-5.673,15.914-8.377,32.989-10.565,49.494
					C109.504,153.16,132.449,152.498,155.607,157.415z"/>
			</defs>
			<clipPath id="SVGID_2_">
				<use xlink:href="#SVGID_1_"  overflow="visible"/>
			</clipPath>
			<g clip-path="url(#SVGID_2_)">
				<g>
					<path fill="#EA4D28" d="M184.628,104.987c4.394,1.823,8.597,4.166,12.294,7.177"/>
				</g>
				<g>
					<path fill="#EA4D28" d="M104.13,110.04c19.353-9.416,41.905-14.148,63.521-9.826"/>
				</g>
				<g>
					<path fill="#EA4D28" d="M84.312,137.115c7.708-10.85,22.861-16.663,35.244-19.933c12.81-3.324,22.404-0.528,34.824,0.163"/>
				</g>
				<g>
					<path fill="#EA4D28" d="M148.922,127.333c9.679,0.071,20.493,0.595,29.14,5.413"/>
				</g>
				<g>
					<path fill="#EA4D28" d="M84.155,150.35c7.852-9.471,19.357-15.198,30.979-18.596"/>
				</g>
				<g>
					<path fill="#EA4D28" d="M167.351,148.408c18.201,4.169,35.343,13.536,49.069,26.145"/>
				</g>
				<g>
					<path fill="#EA4D28" d="M114.261,149.031c15.203-6.76,16.557-5.001,27.657-3.033"/>
				</g>
				<g>
					<path fill="#EA4D28" d="M82.551,162.441c4.082-5.211,10.55-7.894,16.712-9.753"/>
				</g>
			</g>
		</g>
	</g>
</g>
</svg>
