<?xml version="1.0" encoding="utf-8"?>
<!-- Generator: Adobe Illustrator 16.0.0, SVG Export Plug-In . SVG Version: 6.00 Build 0)  -->
<!DOCTYPE svg PUBLIC "-//W3C//DTD SVG 1.1//EN" "http://www.w3.org/Graphics/SVG/1.1/DTD/svg11.dtd">
<svg version="1.1" id="Layer_1" xmlns="http://www.w3.org/2000/svg" xmlns:xlink="http://www.w3.org/1999/xlink" x="0px" y="0px"
	 width="300px" height="300px" viewBox="0 0 300 300" enable-background="new 0 0 300 300" xml:space="preserve">
<g>
	<g>
		<path fill="#FFE9E9" d="M199.795,125.784c1.172,1.658,2.238,6.805,2.98,8.666c1.33,3.341-21.684,6.114-22.202,6.354
			c-0.515,0.238-5.73,4.468-6.378,4.765c-0.641,0.298-6.262,2.698-6.262,2.698s-2.302,1.566-2.904,2.627
			c-0.605,1.063-4.045,0.449-4.045,0.449s-5.644-1.17-6.435-0.18c-0.794,0.993-4.956,2.143-4.956,2.143s-5.393,3.908-5.848,4.281
			c-0.457,0.364-1.795,0.521-2.439,0.818c-0.642,0.297-1.804,2.865-1.804,2.865s-2.867,0.238-3.382,0.479
			c-0.514,0.236-4.857-1.352-4.857-1.352l-0.998,1.561l-2.429-1.357l1.39-2.954l6.846-5.907l3.521-0.535l6.93-5.169
			c0,0,5.049-3.987,5.244-4.233c0.197-0.254,4.978-0.586,4.978-0.586l3.166-0.522l2.214-1.796l3.318-1.246l3.572,0.467l3.674-2.964
			l3.785-2.312l4.877-0.832l3.631-2.797l4.564-0.105l2.387-1.225l2.387-0.644l2.178-0.83L199.795,125.784z"/>
		<path fill="#F6AF82" d="M199.795,125.784l-0.908,3.398l-1.972,3.035l-3.735,1.864l-0.728,1.093l-1.972,1.09l-2.299,0.627
			l-3.615-0.627l-1.178,3.567c0,0-2.621-1.034-3.139-0.795c-0.514,0.238-6.344,4.534-6.991,4.833
			c-0.641,0.297-8.569,0.109-8.569,0.109l-2.524,1.312l-2.185,4.771c0,0-4.64,0.111-5.431,1.102
			c-0.794,0.993-4.956,2.143-4.956,2.143s-5.393,3.908-5.848,4.281c-0.457,0.364-1.795,0.521-2.439,0.818
			c-0.642,0.297-1.804,2.865-1.804,2.865s-2.866,0.238-3.382,0.479c-0.514,0.236-4.857-1.352-4.857-1.352l-0.998,1.561l-2.429-1.357
			l-1.063,2.271c1.559,3.352,13.234,25.148,28.968,30.692c15.729,5.549,20.312,5.286,31.64,0.337
			c11.336-4.944,18.346-20.893,19.731-29.057C208.492,156.687,208.59,142.38,199.795,125.784z"/>
	</g>
</g>
</svg>
