<?xml version="1.0" encoding="utf-8"?>
<!-- Generator: Adobe Illustrator 16.0.0, SVG Export Plug-In . SVG Version: 6.00 Build 0)  -->
<!DOCTYPE svg PUBLIC "-//W3C//DTD SVG 1.1//EN" "http://www.w3.org/Graphics/SVG/1.1/DTD/svg11.dtd">
<svg version="1.1" id="Layer_1" xmlns="http://www.w3.org/2000/svg" xmlns:xlink="http://www.w3.org/1999/xlink" x="0px" y="0px"
	 width="300px" height="300px" viewBox="0 0 300 300" enable-background="new 0 0 300 300" xml:space="preserve">
<g>
	<g>
		<polygon fill="#FFE9E9" points="125.59,113.935 126.693,116.262 134.936,111.784 137.147,116.437 142.791,117.017 
			150.263,123.038 154.919,124.457 155.134,126.85 158.693,127.587 160.975,130.851 163.559,132.067 170.398,137.842 
			172.414,142.722 179.613,145.43 178.635,152.865 180.889,156.474 184.264,160.406 187.521,163.154 187.708,166.24 
			183.915,165.773 179.086,166.869 175.557,162.789 165.572,161.068 162.75,154.5 155.626,154.349 155.255,148.182 152.175,147.536 
			148.852,142.219 140.937,138.049 135.87,131.823 129.084,126.649 126.799,121.094 124.337,118.833 		"/>
		<path fill="#F6AF82" d="M125.59,113.935l-1.253,4.898l2.462,2.26l2.284,5.557l6.786,5.172l5.067,6.226l7.915,4.17l3.323,5.315
			l3.079,0.647l0.371,6.168l7.121,0.158l2.823,6.566l9.979,1.727l3.522,4.087l4.812-1.073l3.761,0.501
			c0,0-17.125,19.295-42.329,21.728c-25.205,2.437-33.706-21.199-32.98-32.303C113.058,144.639,113.746,134.901,125.59,113.935z"/>
	</g>
</g>
</svg>
