<?xml version="1.0" encoding="utf-8"?>
<!-- Generator: Adobe Illustrator 16.0.0, SVG Export Plug-In . SVG Version: 6.00 Build 0)  -->
<!DOCTYPE svg PUBLIC "-//W3C//DTD SVG 1.1//EN" "http://www.w3.org/Graphics/SVG/1.1/DTD/svg11.dtd">
<svg version="1.1" id="Layer_1" xmlns="http://www.w3.org/2000/svg" xmlns:xlink="http://www.w3.org/1999/xlink" x="0px" y="0px"
	 width="300px" height="300px" viewBox="0 0 300 300" enable-background="new 0 0 300 300" xml:space="preserve">
<g>
	<path fill="#E5A045" d="M174.578,149.161l0.68-2.552l-4.936-3.962l0.057-3.994l-1.072-4.586l-4.161-1.957l-1.802-2.144
		l-1.803-1.662l-3.273,0.276l-1.162-4.494l-7.274-0.114l-2.817,0.108l-0.078,0.072c-0.659,0.167-3.382,1.048-5.188,1.74
		c-4.438,1.724-9.96,3.877-15.054,7.361c-6.978,4.789-9.481,10.432-12.376,16.96c-0.28,0.616-0.565,1.256-0.851,1.891l0,0l0,0
		l-0.021,0.043c-0.071,0.152-0.134,0.297-0.2,0.449l-0.202,0.44c-0.205,0.456-0.413,0.911-0.64,1.38
		c-3.734,7.883-2.089,19.27-0.646,28.002c0,0.006-0.003,0.014-0.003,0.014c0.069,0.436,0.142,0.865,0.208,1.277c0,0,0,0,0-0.006
		v0.006l0,0c0.003,0.02,0.006,0.04,0.012,0.061c0.136,0.83,0.354,1.697,0.646,2.572c1.339,3.996,4.603,9.025,9.738,11.15
		c1.006,0.418,2.29,0.671,3.739,0.795l0,0c0,0.003,0,0.003-0.003,0.003c0.015,0,0.023,0.006,0.035,0.006
		c0.155,0.009,0.32,0.018,0.483,0.03c0.03,0.004,0.055,0.004,0.084,0.004c0.136,0.014,0.269,0.023,0.417,0.029
		c0.003-0.003,0.012-0.012,0.015-0.016l0,0c0.003,0,0.003,0,0.003,0c6.725,0.264,16.561-2.064,22.492-5.744
		c1.298-0.807,2.562-1.798,3.786-2.898c0.003,0,0.006,0,0.009,0c0.229-0.201,0.45-0.402,0.673-0.611
		c0.004-0.006,0.01-0.014,0.013-0.014c0.015-0.018,0.029-0.029,0.048-0.043l0,0c5.299-5.025,9.627-12.066,11.367-16.465
		c0.617-1.562,1.136-3.062,1.643-4.523h-0.003c0.013-0.021,0.019-0.059,0.028-0.078l0.217-0.631H167.4h0.004l-0.214,0.625
		c0.035-0.104,0.075-0.213,0.108-0.314c1.142-3.285,2.211-6.39,4.063-9.686c1.028-1.827,2.797-3.054,4.825-3.959h0.016l0.299-2.754
		L174.578,149.161z"/>
	<polyline opacity="0.2" fill="#6D4B22" enable-background="new    " points="146.933,124.15 145.556,140.509 170.434,155.592 
		176.199,154.001 176.502,151.244 174.578,149.161 175.258,146.606 170.324,142.644 170.383,138.65 169.307,134.064 
		165.146,132.107 163.347,129.964 161.543,128.302 158.268,128.578 157.105,124.084 149.829,123.969 147.011,124.078 	"/>
	<path fill="#C88B43" d="M158.238,163.515l0.307-0.429c2.661-3.807,4.851-7.406,6.534-10.739l-0.628-0.38
		c-1.684,3.328-3.901,6.967-6.627,10.836l-0.245,0.356l-0.372-0.212c-0.988-0.551-2.098-1.223-3.371-2.061
		c-5.481-3.613-10.454-8.245-14.774-13.767l-0.276-0.348l0.333-0.291c2.357-2.074,4.754-3.907,7.171-5.532l-0.723-0.441
		c-2.325,1.581-4.619,3.344-6.869,5.312l-0.38,0.335l-0.305-0.407c-3.224-4.33-6.018-9.161-8.303-14.364
		c-0.153,0.094-0.646,0.396-0.646,0.396c2.348,5.287,5.187,10.182,8.445,14.541l0.253,0.34c0,0-1.244,1.135-1.706,1.564
		c-4.979,4.762-9.773,10.478-14.261,17.001c0,0-0.355,0.533-0.456,0.66l-0.401,0.536l-0.366-0.567
		c-3.717-5.746-6.024-10.996-7.113-13.752c-0.066,0.164-0.146,0.322-0.218,0.486l-0.202,0.439c1.132,2.791,3.529,8.138,7.298,13.845
		l0.172,0.257l-0.169,0.26c-3.973,6.044-6.854,11.484-8.589,15.029c0.069,0.436,0.142,0.865,0.208,1.277
		c1.619-3.373,4.517-8.998,8.623-15.308l0.383-0.587l0.398,0.584c0.207,0.301,0.432,0.605,0.653,0.908l0.372,0.513
		c4.181,5.698,8.846,10.254,13.864,13.552c0.783,0.521,1.607,1.029,2.446,1.5l0.519,0.293l-0.416,0.443
		c-5.684,6.013-10.565,10.68-12.706,12.691c0.015,0.006,0.021,0.006,0.032,0.006c0.155,0.018,0.323,0.021,0.483,0.033
		c0.03,0,0.061,0,0.09,0c0.143,0.006,0.284,0.016,0.426,0.018l0,0c4.242-4.018,8.572-8.363,12.539-12.561l0.239-0.254l0.317,0.155
		c4.158,2.141,8.597,3.493,13.183,4.019c0.004,0,0.007,0,0.013,0c0.229-0.203,0.452-0.404,0.671-0.615
		c0.009-0.006,0.012-0.016,0.018-0.023c0.015-0.006,0.023-0.02,0.039-0.031c-4.551-0.438-8.971-1.719-13.149-3.803l-0.569-0.273
		l0.432-0.463c0.538-0.572,1.069-1.137,1.607-1.732c5.978-6.516,11.063-12.676,15.1-18.295l0.239-0.329l0.361,0.187
		c4.024,2.15,7.225,3.235,8.991,3.727v-0.006c0.011-0.021,0.022-0.052,0.028-0.078l0.217-0.631H167.4
		c-1.751-0.493-4.86-1.547-8.691-3.566L158.238,163.515z M156.836,164.203c-4.443,6.148-10.11,12.921-16.841,20.124l-0.25,0.263
		l-0.317-0.176c-1.037-0.57-1.93-1.115-2.742-1.654c-4.946-3.252-9.545-7.738-13.671-13.34l-0.115-0.16
		c-0.45-0.631-0.888-1.24-1.314-1.873l-0.175-0.265l0.178-0.259c0.271-0.393,0.541-0.794,0.818-1.217
		c4.825-7.008,10.018-13.077,15.445-18.035l0.37-0.341l0.317,0.395c4.339,5.517,9.346,10.176,14.886,13.844
		c1.132,0.736,2.222,1.402,3.265,2.011l0.449,0.257L156.836,164.203z"/>
</g>
</svg>
