<?xml version="1.0" encoding="utf-8"?>
<!-- Generator: Adobe Illustrator 16.0.0, SVG Export Plug-In . SVG Version: 6.00 Build 0)  -->
<!DOCTYPE svg PUBLIC "-//W3C//DTD SVG 1.1//EN" "http://www.w3.org/Graphics/SVG/1.1/DTD/svg11.dtd">
<svg version="1.1" xmlns="http://www.w3.org/2000/svg" xmlns:xlink="http://www.w3.org/1999/xlink" x="0px" y="0px" width="300px"
	 height="300px" viewBox="0 0 300 300" enable-background="new 0 0 300 300" xml:space="preserve">
<g id="Layer_1">
</g>
<g id="Layer_6">
</g>
<g id="Layer_5">
</g>
<g id="Layer_4">
	<g>
		<g>
			<path fill="#EF4246" d="M265.046,191.744c10.2-2.619-5.437-21.628-16.6-32.482c-10.323-10.039-30.5-14-55.95-10.894
				c-22.855,2.789-66.907,8.36-66.907,8.36c-9.664-0.91-58.244-4.887-75.082,7.824c-16.839,12.713-19.655,32.67-18.694,33.244
				S141.146,223.559,265.046,191.744z"/>
			<path fill="#ECDAA9" d="M60.992,170.869c1.352-1.895,2.66-3.186,3.29-3.334c0.631-0.149,1.205,0.42,1.236,1.104
				c0.031,0.682-0.536,1.949-1.048,2.996c-0.513,1.046-1.906,3.186-2.556,3.491c-0.649,0.305-1.174,0.264-1.574-0.126
				C59.94,174.612,60.006,172.25,60.992,170.869z"/>
			<path fill="#ECDAA9" d="M79.195,177.856c1.369-1.882,2.689-3.161,3.321-3.303c0.632-0.144,1.2,0.431,1.226,1.114
				c0.025,0.684-0.554,1.945-1.076,2.986s-1.936,3.168-2.588,3.468c-0.651,0.299-1.177,0.253-1.572-0.14
				C78.108,181.59,78.196,179.229,79.195,177.856z"/>
			<path fill="#ECDAA9" d="M226.971,158.202c-1.369-1.882-2.18-3.531-2.12-4.177c0.058-0.645,0.779-1.01,1.438-0.822
				c0.657,0.186,1.681,1.125,2.51,1.941c0.831,0.818,2.419,2.816,2.503,3.529c0.084,0.712-0.121,1.198-0.617,1.453
				C230.189,160.385,227.969,159.574,226.971,158.202z"/>
			<path fill="#ECDAA9" d="M188.033,153.593c1.271,1.948,1.998,3.638,1.906,4.278c-0.09,0.643-0.829,0.969-1.479,0.75
				c-0.646-0.221-1.62-1.21-2.407-2.068c-0.788-0.857-2.272-2.936-2.321-3.65c-0.047-0.715,0.182-1.19,0.689-1.42
				C184.93,151.25,187.106,152.172,188.033,153.593z"/>
			<path fill="#ECDAA9" d="M86.578,196.361c-1.189,2-2.385,3.396-3,3.596c-0.616,0.202-1.236-0.316-1.324-0.996
				c-0.088-0.678,0.371-1.988,0.795-3.072c0.423-1.086,1.633-3.333,2.255-3.693c0.621-0.357,1.148-0.36,1.578-0.005
				C87.314,192.543,87.446,194.903,86.578,196.361z"/>
			<path fill="#ECDAA9" d="M56.418,193.195c-1.189,2-2.385,3.396-3,3.596c-0.616,0.201-1.236-0.317-1.324-0.996
				c-0.088-0.678,0.371-1.988,0.795-3.072c0.423-1.086,1.633-3.334,2.255-3.693c0.621-0.357,1.148-0.361,1.578-0.006
				C57.154,189.376,57.286,191.736,56.418,193.195z"/>
			<path fill="#ECDAA9" d="M232.184,180.346c0.883,2.152,1.279,3.947,1.068,4.559c-0.209,0.615-0.996,0.798-1.592,0.46
				c-0.594-0.338-1.365-1.493-1.977-2.483c-0.613-0.99-1.682-3.309-1.596-4.021c0.088-0.711,0.402-1.135,0.945-1.265
				C229.574,177.461,231.539,178.775,232.184,180.346z"/>
			<path fill="#ECDAA9" d="M125.575,197.341c0.484-2.275,1.169-3.981,1.688-4.368c0.52-0.389,1.272-0.096,1.573,0.52
				c0.301,0.613,0.286,2.002,0.232,3.164c-0.053,1.164-0.478,3.682-0.951,4.221s-0.972,0.711-1.493,0.512
				C126.103,201.194,125.22,199,125.575,197.341z"/>
			<path fill="#ECDAA9" d="M247.76,165.162c1.201,1.992,1.865,3.706,1.751,4.344c-0.114,0.639-0.864,0.939-1.503,0.695
				c-0.64-0.242-1.578-1.267-2.332-2.152c-0.756-0.887-2.166-3.015-2.189-3.732c-0.021-0.716,0.225-1.183,0.741-1.394
				C244.741,162.709,246.885,163.708,247.76,165.162z"/>
			<path fill="#ECDAA9" d="M175.165,178.289c0.735,2.208,1.009,4.025,0.758,4.622c-0.251,0.599-1.049,0.729-1.619,0.35
				c-0.571-0.376-1.262-1.581-1.804-2.61c-0.544-1.031-1.453-3.416-1.318-4.121c0.135-0.703,0.478-1.105,1.027-1.197
				C172.758,175.234,174.63,176.68,175.165,178.289z"/>
			<path fill="#ECDAA9" d="M203.125,188.638c0.885,2.151,1.28,3.947,1.07,4.56c-0.209,0.614-0.996,0.798-1.592,0.459
				c-0.594-0.337-1.365-1.492-1.977-2.482c-0.613-0.99-1.684-3.309-1.597-4.021c0.087-0.711,0.401-1.135,0.944-1.264
				C200.515,185.754,202.481,187.066,203.125,188.638z"/>
			<path fill="#ECDAA9" d="M210.674,158.564c1.482,1.794,2.393,3.392,2.373,4.038c-0.019,0.649-0.716,1.058-1.385,0.909
				c-0.668-0.145-1.746-1.02-2.623-1.784c-0.879-0.765-2.588-2.662-2.716-3.368c-0.127-0.705,0.047-1.203,0.526-1.487
				C207.326,156.584,209.594,157.256,210.674,158.564z"/>
			<path fill="#ECDAA9" d="M251.16,184.509c0.609,2.245,0.781,4.075,0.496,4.657c-0.283,0.582-1.088,0.666-1.637,0.258
				c-0.548-0.408-1.17-1.649-1.654-2.709c-0.485-1.059-1.258-3.492-1.084-4.189c0.176-0.694,0.539-1.074,1.094-1.137
				C248.93,181.324,250.717,182.871,251.16,184.509z"/>
			<path fill="#ECDAA9" d="M185.119,194.627c-0.388-2.295-0.379-4.133-0.039-4.684c0.34-0.553,1.146-0.557,1.654-0.098
				c0.504,0.461,1.002,1.756,1.383,2.857c0.379,1.102,0.91,3.6,0.668,4.275c-0.242,0.674-0.641,1.018-1.199,1.025
				C187.028,198.014,185.401,196.3,185.119,194.627z"/>
			<path fill="#ECDAA9" d="M41.202,181.314c1.019-2.092,2.094-3.582,2.69-3.833c0.598-0.252,1.258,0.214,1.402,0.883
				c0.145,0.668-0.204,2.012-0.536,3.128c-0.332,1.117-1.351,3.458-1.941,3.867c-0.589,0.408-1.113,0.455-1.573,0.138
				C40.787,185.182,40.459,182.84,41.202,181.314z"/>
		</g>
		<path fill="#519756" d="M138.463,144.919c-5.252-2.151-24.464-9.234-38.49-18.893c-13.965-9.615-17.229-3.971-17.229-3.971
			s19.577,24.788,30.263,31.027c0,0,2.556,1.318,2.868,2.209c0.312,0.889-0.702,0.668-2.225,0.734s-23.379-0.547-29.374,2.122
			s-15.164,4.814-17.925,10.552c-1.15,2.389,13.517-0.958,32.428,3.812c8.764,2.211,18.29,2.148,19.049,2.105
			c0.824-0.047,0.904-0.045,1.078,0.066c0.213,0.139-0.43,0.644-0.794,1.041c-0.364,0.396-12.727,8.641-17.749,13.902
			c-5.021,5.262-13.267,13.967-13.73,17.627s29.222-9.881,35.385-10.746c6.724-0.943,12.049-5.17,13.383-5.639
			c0,0,3.143-3.367,3.287-3.09c0.144,0.276-0.42,5.315-0.476,5.756c-0.056,0.441,0.523,20.334,8.384,27.065
			c7.861,6.731,8.848,7.759,9.448,8.048s6.288-14.545,6.854-21.114s-0.854-18.343-1.864-20.86c0,0-0.006-0.662,0.275-0.527
			c0.282,0.136,0.65,0.451,1.076,0.863c0.426,0.413,22.01,17.625,27.98,20.399s12.73,3.522,15.137,2.552
			c2.407-0.971,4.303-3.084,4.792-4.006c0.488-0.921-0.665-1.225-1.021-1.349c-0.356-0.124-7.203-4.059-9.914-5.729
			c-2.711-1.671-17.764-15.275-21.298-21.778c0,0,38.851,10.053,47.146,4.328c0,0-7.93-6.303-11.03-7.93
			s-28.902-13.734-38.725-12.626c0,0,18.824-11.485,26.919-12.175c8.096-0.689,10.684,0.275,12.604,1.475
			c1.92,1.199,1.668-0.586,1.668-0.586s-0.793-4.125-7.608-7.258s-33.991-3.422-52.848,2.641c0,0,8.759-15.069,9.998-17.94
			c1.24-2.871,1.381-4.61,1.381-4.61s-6.698-1.547-14.829,3.839C144.604,131.644,138.463,144.919,138.463,144.919z"/>
		<path fill="#60AF60" d="M142.167,165.415c-0.055-8.956-4.412-42.404-9.662-52.797c-3.121-6.176-7.688-15.233-12.952-22.855
			c-3.459-5.009-7.513-10.479-8.209-12.168c-0.444-1.077-0.135-2.692,1.288-3.803c0.637-0.497,1.222-0.958,1.699-1.376
			c1.767-1.552,3.848-1.136,5.328-0.476c2.342,1.807,10.904,15.534,17.381,28.718c5.005,10.187,7.214,25.69,7.771,30.198
			c1.038,8.395,1.689,24.779,1.204,34.832C144.931,165.697,142.909,165.555,142.167,165.415z"/>
	</g>
</g>
<g id="Layer_3">
</g>
<g id="Layer_2">
</g>
</svg>
