<?xml version="1.0" encoding="utf-8"?>
<!-- Generator: Adobe Illustrator 16.0.0, SVG Export Plug-In . SVG Version: 6.00 Build 0)  -->
<!DOCTYPE svg PUBLIC "-//W3C//DTD SVG 1.1//EN" "http://www.w3.org/Graphics/SVG/1.1/DTD/svg11.dtd">
<svg version="1.1" id="Layer_1" xmlns="http://www.w3.org/2000/svg" xmlns:xlink="http://www.w3.org/1999/xlink" x="0px" y="0px"
	 width="300px" height="300px" viewBox="0 0 300 300" enable-background="new 0 0 300 300" xml:space="preserve">
<g id="Tomato">
	<g>
		<polyline fill="#FF9076" points="196.324,104.237 141.01,117.28 81.59,146.398 81.303,146.403 69.608,195.99 172.791,212.641 
			241.499,143.337 		"/>
		<path fill="#529756" d="M133.174,101.167c1.412-0.978,11.098,9.175,14.751,3.436c4.288-6.731,10.555-14.427,19.869-17.627
			c2.991-3.922,5.005-7.383,5.361-9.517l-20.71,9.819c0,0-4.935-23.658-7.006-36.115c0,0-4.589,38.368-8.411,44.993l-32.889-4.836
			c1.69,0.754,5.509,4.058,10.304,7.719C124.93,97.033,133.174,101.167,133.174,101.167z"/>
		<path fill="#FF5B29" d="M241.499,143.337L241.499,143.337c-4.448-16.986-14.598-39.385-48.005-54.056
			c-10.45-4.589-18.886-4.652-25.699-2.305c-9.307,3.199-15.132,10.194-19.415,16.926c-3.656,5.734-9.154-2.029-14.501-3.448
			c0,0-8.95-3.419-19.435-1.417c-2.691,0.514-5.529,1.428-8.425,2.928c-14.125,7.351-33.928,22.312-41.957,49.427
			c-3.387,11.447-1.324,28.116,5.452,44.708C69.603,195.924,151.19,110.734,241.499,143.337z"/>
		<path fill="#B53C1F" d="M150.624,152.132c-9.005,3.298-23.831,11.168-29.832,17.331c-5.99,6.157,14.936,14.172,19.214,17.511
			c6.168,4.814,15.964,16.211,22.698,11.51c6.74-4.699,10.964-20.33,13.98-28.269c2.167-5.706,8.337-22.276,3.721-23.937
			C175.78,144.614,150.624,152.132,150.624,152.132z"/>
		<path fill="#B53C1F" d="M154.727,209.733c4.511-2.596-30.663-28.462-36.23-28.864c-7.342-0.523-14.397,1.28-20.495,6.556
			c-3.054,2.631-4.214,12.037,0.716,13.256"/>
		<path fill="#B53C1F" d="M179.771,205.588c-2.751-4.37-5.085-14.618-2.461-21.573c3.438-9.11,5.491-29.804,9.891-34.365
			c4.39-4.566,9.325-5.811,16.722-6.231c0,0,13.785-1.677,25.254,12.337L179.771,205.588z"/>
		<path fill="#F9A565" d="M118.454,186.686c-3.645,2.857-0.266,5.05,1.734,6.386c1.986,1.339,8.319,2.243,7.083,0.288
			C126.028,191.404,123.173,182.99,118.454,186.686z"/>
		<path fill="#F9A565" d="M171.672,156.186c-3.135-2.188-5.107-0.72-6.062,0.998c-0.963,1.719-2.354,10.063-0.857,10.278
			c1.504,0.211,1.709,0.082,2.433-0.774C167.911,165.843,176.982,159.896,171.672,156.186z"/>
		<path fill="#F9A565" d="M204.245,154.104c-3.857-0.613-5.098-1.323-6.199,0.788c-1.108,2.115-1.771,11.555-0.992,13.554
			c0.779,2.01,1.589,1.414,2.771,0.717c1.172-0.708,2.602-3.925,3.146-5.781C203.521,161.521,208.092,154.713,204.245,154.104z"/>
		<path fill="#F9A565" d="M108.114,195.801c-1.298,4.068,2.76,5.04,6.444,4.678c3.686-0.367,5.869-1.353,4.601-3.258
			C117.883,195.31,110.531,188.267,108.114,195.801z"/>
		<path fill="#F9A565" d="M131.957,170.139c-2.552,2.395-2.689,4.851-1.564,5.868c1.124,1.025,5.433,4.282,6.902,4.691
			c1.75,0.479,2.766,0.629,3.433-2.066c0.356-1.479,0.094-3.77-3.197-8.615C135.62,167.213,133.479,168.715,131.957,170.139z"/>
		<path fill="#F9A565" d="M141.403,162.084c3.562-0.793,4.332-0.362,5.34,1.298c1.001,1.665,1.487,7.79,0.429,8.753
			c-1.067,0.962-0.913,0.905-2.491-0.104c-1.567-1.012-5.835-4.207-5.869-6.649C138.779,162.947,139.498,162.495,141.403,162.084z"
			/>
		<path fill="#F9A565" d="M192.127,156.606c3.261,1.646,3.52,2.765,3.021,5.624c-0.501,2.864-4.761,11.022-6.287,11.446
			c-1.517,0.439-1.385,0.485-1.783-1.973c-0.403-2.448-1.202-9.683,0.61-12.82C189.505,155.751,190.378,155.72,192.127,156.606z"/>
		<path fill="#F9A565" d="M218.145,158.48c-1.423-1.386-4.332-4.094-7.095-0.733c-2.764,3.365-6.583,12.359-5.243,13.299
			c1.343,0.945,7.82-1.938,11.325-6.264C220.633,160.45,219.277,159.595,218.145,158.48z"/>
		<path fill="#F9A565" d="M156.472,157.733c-2.894,0.381-4.302,0.121-5.259,1.16c-0.974,1.024,1.222,8.752,4.184,10.224
			c1.675,0.832,2.994-1.307,2.963-2.787C158.338,164.866,160.789,157.162,156.472,157.733z"/>
	</g>
</g>
</svg>
