<?xml version="1.0" encoding="utf-8"?>
<!DOCTYPE svg PUBLIC "-//W3C//DTD SVG 1.1//EN" "http://www.w3.org/Graphics/SVG/1.1/DTD/svg11.dtd">
<svg version="1.1" id="Layer_1" xmlns="http://www.w3.org/2000/svg" xmlns:xlink="http://www.w3.org/1999/xlink" x="0px" y="0px"
	 width="100%" height="1em" viewBox="-9.248 -12.5 38.475 45" enable-background="new -9.248 -12.5 38.475 45"
	 xml:space="preserve">
<g>
	<path fill="#231F20" d="M16.088-12.5c3.825,2.205,4.14,6.435,4.186,6.615v0.045V4.916c-0.633,3.465-2.391,5.265-3.735,6.165
		c-1.485,0.99-2.834,1.126-2.88,1.126h-0.091L6.502,12.25v2.387h3.015V25.3H-9.248l4.68,7.2h20.97V19.404l-0.765-1.169h5.265
		c4.59,0,8.325-3.151,8.325-6.974V-2.78C29.273-6.334,20.946-11.735,16.088-12.5z"/>
	<path fill="#231F20" d="M11.678,1.584v-2.97c0-1.035-0.99-1.799-2.206-1.799h-3.24V3.34h3.24C10.688,3.34,11.678,2.53,11.678,1.584
		z"/>
	<path fill="#231F20" d="M8.078,16.166H5.062v-5.312l8.505-0.045c0.404-0.045,4.276-0.72,5.265-6.074v-10.53
		c-0.044-0.36-0.494-4.59-4.86-6.074H-7.762v7.694h3.015v20.341h-3.015v7.694h15.84V16.166z M4.793-4.67h4.679
		c2.026,0,3.691,1.44,3.691,3.24v2.971c0,1.799-1.663,3.24-3.693,3.24H4.793V-4.67z"/>
</g>
<g id="Layer_2">
</g>
</svg>