<?xml version="1.0" encoding="utf-8"?>
<!-- Generator: Adobe Illustrator 16.0.0, SVG Export Plug-In . SVG Version: 6.00 Build 0)  -->
<!DOCTYPE svg PUBLIC "-//W3C//DTD SVG 1.1//EN" "http://www.w3.org/Graphics/SVG/1.1/DTD/svg11.dtd">
<svg version="1.1" id="Layer_1" xmlns="http://www.w3.org/2000/svg" xmlns:xlink="http://www.w3.org/1999/xlink" x="0px" y="0px"
	 width="100%" height="1em" viewBox="375 377.5 50 45" enable-background="new 375 377.5 50 45" xml:space="preserve">
<g id="Layer_1_1_">
	<g>
		<path fill="#231F20" d="M403.25,419.2h-5.95c-0.45,0-0.8-0.351-0.8-0.8V378.3c0-0.45,0.35-0.8,0.8-0.8h10.95
			c6.2,0,11.25,5.05,11.25,11.25c0,6.25-5.05,11.25-11.25,11.25H404v18.35C404,418.8,403.65,419.2,403.25,419.2z M398.1,417.6h4.35
			v-18.35c0-0.45,0.35-0.8,0.8-0.8h5.05c5.351,0,9.65-4.35,9.65-9.65c0-5.3-4.351-9.7-9.7-9.7H398.1V417.6z M408.25,394.1h-5
			c-0.45,0-0.8-0.35-0.8-0.8v-9.05c0-0.45,0.35-0.8,0.8-0.8h5.05c2.95,0,5.351,2.4,5.351,5.35
			C413.65,391.75,411.2,394.1,408.25,394.1z M404,392.5h4.25c2.05,0,3.75-1.7,3.75-3.75s-1.65-3.75-3.75-3.75H404V392.5z"/>
		<path fill="#231F20" d="M408.95,403.95h-3.15c-0.45,0-0.8-0.351-0.8-0.8c0-0.45,0.35-0.801,0.8-0.801h3.15
			c7.3,0,13.25-5.95,13.25-13.25c0-0.45,0.35-0.8,0.8-0.8s0.8,0.35,0.8,0.8C423.75,397.35,417.1,403.95,408.95,403.95z"/>
		<path fill="#231F20" d="M393.15,385h-9.85c-0.45,0-0.8-0.35-0.8-0.8c0-0.45,0.35-0.8,0.8-0.8h9.85c0.45,0,0.8,0.35,0.8,0.8
			C393.95,384.65,393.6,385,393.15,385z"/>
		<path fill="#231F20" d="M393.15,388.95H375.8c-0.45,0-0.8-0.35-0.8-0.8c0-0.45,0.35-0.8,0.8-0.8h17.35c0.45,0,0.8,0.35,0.8,0.8
			C393.95,388.6,393.6,388.95,393.15,388.95z"/>
		<path fill="#231F20" d="M393.15,392.9h-9.85c-0.45,0-0.8-0.35-0.8-0.8c0-0.45,0.35-0.8,0.8-0.8h9.85c0.45,0,0.8,0.35,0.8,0.8
			C393.95,392.55,393.6,392.9,393.15,392.9z"/>
		<path fill="#231F20" d="M393.15,413c-0.2,0-0.4-0.1-0.55-0.25l-2.6-2.6l-2.45,2.449c-0.25,0.25-0.55,0.301-0.85,0.15
			c-0.15-0.05-0.25-0.15-0.35-0.25l-2.5-2.5l-2.5,2.5c-0.3,0.3-0.8,0.3-1.1,0s-0.3-0.8,0-1.1l3.05-3.051c0.3-0.3,0.8-0.3,1.1,0
			l2.6,2.601l2.45-2.45c0.3-0.3,0.8-0.3,1.1,0l3.15,3.15c0.3,0.3,0.3,0.8,0,1.1C393.55,412.95,393.35,413,393.15,413z"/>
		<path fill="#231F20" d="M379.25,392.9h-2.85c-0.45,0-0.8-0.35-0.8-0.8c0-0.45,0.35-0.8,0.8-0.8h2.85c0.45,0,0.8,0.35,0.8,0.8
			C380.05,392.55,379.7,392.9,379.25,392.9z"/>
		<g>
			<path fill="#231F20" d="M411.6,416.9c-0.449,0-0.8-0.351-0.8-0.801v-5.5c0-0.449,0.351-0.8,0.8-0.8c0.45,0,0.801,0.351,0.801,0.8
				v5.551C412.4,416.55,412.05,416.9,411.6,416.9z"/>
			<path fill="#231F20" d="M414.4,414.15h-5.551c-0.449,0-0.8-0.351-0.8-0.801c0-0.449,0.351-0.8,0.8-0.8h5.551
				c0.449,0,0.8,0.351,0.8,0.8C415.2,413.8,414.8,414.15,414.4,414.15z"/>
		</g>
		<path fill="#231F20" d="M422.3,409.3c-1.2,0-2.149-0.95-2.149-2.149c0-1.2,0.949-2.15,2.149-2.15s2.15,0.95,2.15,2.15
			C424.45,408.35,423.5,409.3,422.3,409.3z M422.3,406.55c-0.35,0-0.6,0.25-0.6,0.601c0,0.35,0.25,0.6,0.6,0.6
			c0.351,0,0.601-0.25,0.601-0.6C422.9,406.8,422.6,406.55,422.3,406.55z"/>
		<path fill="#231F20" d="M420.9,422.5c-2.25,0-4.101-1.85-4.101-4.1s1.851-4.101,4.101-4.101s4.1,1.851,4.1,4.101
			S423.15,422.5,420.9,422.5z M420.9,415.85c-1.4,0-2.5,1.15-2.5,2.5c0,1.351,1.149,2.5,2.5,2.5c1.399,0,2.5-1.149,2.5-2.5
			C423.4,417,422.3,415.85,420.9,415.85z"/>
	</g>
</g>
<g id="Layer_2">
</g>
</svg>