<?xml version="1.0" encoding="utf-8"?>
<!-- Generator: Adobe Illustrator 16.0.0, SVG Export Plug-In . SVG Version: 6.00 Build 0)  -->
<!DOCTYPE svg PUBLIC "-//W3C//DTD SVG 1.1//EN" "http://www.w3.org/Graphics/SVG/1.1/DTD/svg11.dtd">
<svg version="1.1" id="Layer_1" xmlns="http://www.w3.org/2000/svg" xmlns:xlink="http://www.w3.org/1999/xlink" x="0px" y="0px"
	 width="100%" height="1em" viewBox="384.33 377.5 32.939 45" enable-background="new 384.33 377.5 32.939 45"
	 xml:space="preserve">
<g id="Layer_1_1_">
	<g>
		<path fill="#231F20" d="M403.005,393.925c0-1.26-1.035-2.25-2.25-2.25h-2.25v4.5h2.25
			C402.015,396.175,403.005,395.14,403.005,393.925z M399.675,392.8h1.08c0.585,0,1.08,0.495,1.08,1.08s-0.495,1.08-1.08,1.08h-1.08
			V392.8z"/>
		<path fill="#231F20" d="M400.755,377.5H384.33v24.075h8.775v2.16h-8.775v6.524v12.24h15.3v-12.195h1.125
			c0.45,0,0.854,0,1.26-0.045l0,0h0.045l0,0c0.271,0,0.495-0.045,0.766-0.09c0,0,0,0,0.045,0c0.27-0.045,0.495-0.09,0.765-0.135
			h0.045c0.226-0.045,0.45-0.09,0.675-0.135c0.045,0,0.09,0,0.136-0.045c0.225-0.046,0.404-0.091,0.63-0.181
			c0.045,0,0.135-0.045,0.18-0.045c0.18-0.045,0.36-0.09,0.54-0.18c0.09-0.045,0.18-0.045,0.27-0.09
			c0.181-0.045,0.315-0.091,0.45-0.181c0.09-0.045,0.226-0.09,0.315-0.135c0.135-0.045,0.27-0.09,0.405-0.18
			c0.135-0.045,0.225-0.09,0.359-0.181c0.135-0.045,0.226-0.09,0.36-0.18c0.135-0.045,0.27-0.135,0.405-0.18
			c0.09-0.045,0.225-0.09,0.314-0.181c0.135-0.09,0.271-0.135,0.36-0.225c0.09-0.045,0.225-0.135,0.314-0.18
			c0.136-0.09,0.226-0.135,0.36-0.226c0.09-0.09,0.225-0.135,0.314-0.225c0.091-0.045,0.181-0.135,0.271-0.18
			c0.135-0.091,0.27-0.181,0.36-0.271c0.09-0.045,0.135-0.09,0.225-0.18c0.135-0.135,0.315-0.226,0.45-0.36
			c0.045-0.045,0.09-0.09,0.135-0.09c0.18-0.135,0.315-0.27,0.495-0.45l0.045-0.045c1.125-1.08,2.115-2.295,2.925-3.645l0,0
			c0.181-0.315,0.315-0.585,0.495-0.9l0,0l0,0c0.405-0.81,0.765-1.665,1.035-2.565c0.045-0.09,0.045-0.18,0.09-0.27
			c0.045-0.18,0.09-0.36,0.135-0.54c0.045-0.135,0.045-0.27,0.09-0.405c0.046-0.135,0.046-0.315,0.091-0.45
			c0.045-0.135,0.045-0.27,0.09-0.405c0.045-0.135,0.045-0.315,0.09-0.45c0-0.135,0.045-0.27,0.045-0.405
			c0-0.18,0.045-0.36,0.045-0.54c0-0.135,0-0.225,0.045-0.36c0-0.315,0.045-0.585,0.045-0.9
			C417.18,384.88,409.8,377.5,400.755,377.5z M415.965,394.735c0,0.09,0,0.225-0.045,0.315c0,0.18-0.045,0.315-0.045,0.495
			c0,0.135-0.045,0.27-0.045,0.36c0,0.135-0.045,0.27-0.045,0.45c0,0.135-0.045,0.27-0.091,0.405c-0.045,0.135-0.045,0.27-0.09,0.45
			c-0.045,0.135-0.045,0.225-0.09,0.36c-0.045,0.18-0.09,0.36-0.135,0.495c-0.045,0.09-0.045,0.18-0.09,0.27
			c-0.271,0.81-0.585,1.62-0.945,2.385c-0.585,1.17-1.305,2.25-2.16,3.24c-0.495,0.54-0.989,1.08-1.529,1.53l-0.046,0.045
			c-0.135,0.135-0.314,0.27-0.449,0.359c-0.045,0.046-0.09,0.091-0.136,0.091c-0.135,0.09-0.27,0.18-0.404,0.314
			c-0.09,0.045-0.136,0.09-0.226,0.135c-0.135,0.091-0.225,0.181-0.359,0.226c-0.091,0.045-0.181,0.135-0.271,0.18
			c-0.09,0.09-0.225,0.135-0.314,0.18c-0.091,0.046-0.181,0.136-0.315,0.181c-0.09,0.045-0.225,0.135-0.314,0.18
			c-0.091,0.045-0.226,0.09-0.315,0.18c-0.135,0.046-0.225,0.136-0.36,0.181c-0.09,0.045-0.18,0.09-0.314,0.135
			s-0.271,0.135-0.405,0.18c-0.09,0.045-0.18,0.045-0.27,0.09c-0.136,0.046-0.315,0.136-0.45,0.181
			c-0.09,0.045-0.136,0.045-0.226,0.09c-0.18,0.045-0.359,0.135-0.54,0.18c-0.045,0-0.09,0.045-0.135,0.045
			c-0.18,0.045-0.405,0.091-0.585,0.136c-0.045,0-0.045,0-0.09,0c-0.225,0.045-0.45,0.09-0.675,0.135c0,0,0,0-0.045,0
			c-0.495,0.09-0.945,0.135-1.44,0.18h-12.24v1.17v1.665v5.175h4.5v-6.84h0.99l0,0c0.045,0,0.045,0,0.09,0l0,0h0.765
			c-0.045,0.045-0.045,0.09,0,0.181c0.045-0.046,0.135-0.091,0.09-0.181h0.45h0.045h0.045c0,0,0,0,0,0.045h0.045c0,0,0,0,0-0.045
			h0.405c0,0.045,0,0.09,0,0.135c0.09,0,0.135-0.09,0.225-0.09c0,0,0-0.045-0.045-0.045h0.045c0,0.045,0.045,0.09,0.045,0.09
			c0-0.045,0.09,0,0.09-0.09c-0.045,0-0.045,0-0.045,0h0.135c0,0,0,0.045,0.045,0.045v-0.045h0.135c0,0,0,0,0.045,0l0,0h0.405
			c-0.09,0.09-0.135,0.226-0.045,0.226c-0.09-0.136,0.09-0.136,0.18-0.181v-0.045h0.135l0,0l0,0l0,0v0.135l0,0
			c-0.045,0.046,0,0.091,0,0.091v4.814c-0.045-0.045-0.09,0-0.09,0.045c0.045,0,0.045,0,0.09,0v5.94H385.5v-9.36v-1.665v-1.17
			v-1.935v-2.25h8.73h4.23h2.295c2.564,0,4.95-0.9,6.795-2.386l0,0c0.135-0.09,0.27-0.225,0.405-0.359l0.045-0.045
			c0.135-0.09,0.225-0.226,0.359-0.315l0.046-0.045c0.135-0.135,0.225-0.225,0.359-0.36l0.045-0.045l0,0
			c0.09-0.09,0.181-0.225,0.271-0.314c0-0.045,0.045-0.045,0.045-0.09c0.09-0.09,0.18-0.226,0.27-0.315
			c0.045-0.045,0.045-0.045,0.09-0.09c0.091-0.09,0.136-0.225,0.226-0.315c0.045-0.045,0.045-0.09,0.09-0.135
			c0.045-0.09,0.135-0.18,0.18-0.315c0.045-0.045,0.045-0.09,0.09-0.135c0.046-0.09,0.136-0.18,0.181-0.27
			c0.045-0.045,0.045-0.09,0.09-0.18s0.09-0.18,0.135-0.27c0.045-0.045,0.045-0.135,0.09-0.18c0.045-0.09,0.091-0.18,0.136-0.27
			c0.045-0.045,0.045-0.135,0.09-0.18c0.045-0.09,0.09-0.18,0.135-0.315c0.045-0.045,0.045-0.135,0.09-0.18
			c0.045-0.09,0.09-0.18,0.09-0.315c0-0.045,0.045-0.135,0.045-0.18c0.045-0.09,0.045-0.18,0.091-0.315
			c0-0.045,0.045-0.135,0.045-0.18c0.045-0.09,0.045-0.18,0.09-0.315c0-0.09,0.045-0.135,0.045-0.225c0-0.09,0.045-0.18,0.045-0.315
			c0-0.09,0.045-0.135,0.045-0.225c0-0.09,0.045-0.18,0.045-0.27s0.045-0.18,0.045-0.27s0-0.18,0.045-0.27
			c0-0.09,0-0.225,0.045-0.315c0-0.09,0-0.135,0-0.225c0-0.18,0-0.36,0-0.54c0.091-5.985-4.859-10.935-10.935-10.935H389.73v13.275
			h4.5v-8.73h6.525c3.6,0,6.479,2.925,6.479,6.48c0,3.555-2.88,6.48-6.479,6.48h-2.25h-4.23H385.5V378.67h15.255
			c8.415,0,15.255,6.84,15.255,15.255C416.01,394.195,415.965,394.465,415.965,394.735z M393.06,410.305v5.625h-2.16v-5.625H393.06z
			 M394.545,401.62v-0.045h0.135c-0.045,0,0,0.135,0.045,0.135c0-0.045,0.045-0.045,0.045-0.135h0.585h0.045h0.495
			c0.09,0.045,0.045,0.18,0.18,0.135c0-0.045,0-0.045,0.045-0.09c-0.045,0-0.09-0.045-0.135-0.09h1.17
			c0,0.045-0.045,0.09-0.09,0.135c0.09,0,0.135,0,0.225-0.045c0-0.045,0-0.045,0-0.09h0.135v0.045c0,0,0.045,0,0.045,0.045
			c0.045,0,0.09-0.045,0.09-0.09h0.36c0,0.045,0.045,0.09,0.045,0.135c0.09,0,0.045-0.09,0.135-0.045c0-0.045,0-0.045,0-0.09h0.135
			c-0.09,0,0,0.09,0,0.18c-0.045,0-0.045,0.045-0.135,0.045c0,0,0-0.045-0.045,0c0.045,0,0.09,0.045,0.09,0.135
			c0.09,0,0.045-0.18,0.135-0.045c0.045,0,0.045-0.09,0.09-0.09c0,0.09-0.09,0.09-0.045,0.135c0.135,0,0.045-0.135,0.18-0.09
			c0,0.045,0,0.09,0.045,0.09l0,0v0.226c-0.045,0-0.135,0-0.135,0.045c0.045,0,0.09,0.045,0.135,0.045v0.54c0,0,0,0-0.045-0.045
			c0,0,0,0.045-0.045,0.045v0.045c0.045,0,0.045,0,0.045,0v0.18l0,0c0,0.045-0.045,0.045-0.045,0.09h0.045v0.585h-4.23v-2.159h0.225
			v0.045C394.5,401.62,394.5,401.62,394.545,401.62z M398.325,401.575h0.09l0,0c0.09-0.045,0.09-0.045,0.09,0.09l0,0v0.045
			c0,0,0,0-0.045,0c-0.045-0.09-0.225-0.09-0.27-0.18h0.09c0.045,0,0.09,0.09,0.09,0.045
			C398.325,401.62,398.325,401.575,398.325,401.575z M399.63,403.735v-2.16h1.125c4.229,0,7.65-3.42,7.65-7.65
			s-3.421-7.65-7.65-7.65h-7.65v8.73h-2.16V384.07h9.81c4.905,0,9,3.645,9.72,8.325c0.09,0.495,0.135,0.99,0.135,1.485
			c0,0.315,0,0.585-0.045,0.855c0,0.045,0,0.045,0,0.09c-0.045,0.27-0.09,0.54-0.135,0.855c0,0.045,0,0.045,0,0.09
			c-0.045,0.27-0.135,0.54-0.18,0.81c0,0.045,0,0.045,0,0.09c-0.09,0.27-0.181,0.54-0.271,0.81c0,0,0,0.045-0.045,0.045
			c-0.09,0.27-0.225,0.54-0.359,0.765c0,0,0,0.045-0.045,0.045c-0.136,0.27-0.271,0.495-0.45,0.765c0,0,0,0,0,0.045
			c-0.181,0.27-0.315,0.495-0.495,0.72l0,0c-0.18,0.225-0.405,0.495-0.585,0.72c-1.845,2.025-4.5,3.15-7.2,3.15H399.63
			L399.63,403.735z"/>
		<path fill="#231F20" d="M394.275,402.205C394.275,402.205,394.32,402.25,394.275,402.205c0.09,0.045,0.09,0,0.09-0.09
			C394.32,402.16,394.275,402.16,394.275,402.205z"/>
		<path fill="#231F20" d="M394.32,401.71L394.32,401.71c0.045,0.045,0.045,0.045,0.09,0.045
			C394.41,401.665,394.275,401.62,394.32,401.71z"/>
		<path fill="#231F20" d="M394.455,402.52c0.045,0,0.045,0,0.09,0C394.545,402.475,394.41,402.475,394.455,402.52z"/>
		<path fill="#231F20" d="M394.455,401.755c0.09,0,0.09-0.09,0.045-0.09S394.41,401.71,394.455,401.755z"/>
		<path fill="#231F20" d="M394.77,403.6h-0.045v0.045h0.045V403.6z"/>
		<path fill="#231F20" d="M395.085,402.07c0,0.045,0,0.045-0.045,0.09c0.045,0.045,0.09,0.045,0.135,0.045
			C395.175,402.115,395.175,402.07,395.085,402.07z"/>
		<path fill="#231F20" d="M395.265,402.16h-0.045v0.045h0.045C395.265,402.16,395.265,402.16,395.265,402.16z"/>
		<path fill="#231F20" d="M395.49,401.89c0-0.045,0-0.09,0-0.09c-0.09,0.045-0.135-0.045-0.135,0.09
			C395.445,401.845,395.445,401.845,395.49,401.89z"/>
		<path fill="#231F20" d="M395.49,401.62c-0.045,0-0.045,0.045-0.09,0.09C395.49,401.755,395.535,401.665,395.49,401.62z"/>
		<path fill="#231F20" d="M395.49,402.16C395.58,402.25,395.58,402.07,395.49,402.16L395.49,402.16z"/>
		<path fill="#231F20" d="M395.715,402.475c-0.045,0-0.09,0.045-0.09,0.091c0.045,0,0.09,0,0.09,0
			C395.76,402.52,395.76,402.475,395.715,402.475z"/>
		<path fill="#231F20" d="M395.805,402.16c-0.045,0-0.045,0-0.09,0c0,0.045,0,0.09,0.045,0.09
			C395.85,402.295,395.805,402.205,395.805,402.16z"/>
		<path fill="#231F20" d="M395.85,401.665h0.045C395.94,401.62,395.805,401.575,395.85,401.665
			C395.805,401.62,395.85,401.665,395.85,401.665z"/>
		<path fill="#231F20" d="M395.85,402.025C395.76,402.16,395.94,402.115,395.85,402.025L395.85,402.025z"/>
		<path fill="#231F20" d="M395.895,401.98c0.045,0,0.045,0,0.09-0.046c0-0.045-0.045-0.09-0.09-0.09
			C395.895,401.89,395.895,401.935,395.895,401.98z"/>
		<path fill="#231F20" d="M395.94,402.025c0-0.045,0.045-0.045,0-0.045S395.895,402.025,395.94,402.025z"/>
		<path fill="#231F20" d="M396.075,402.16c0.045,0,0.09,0,0.09-0.045C396.165,402.115,396.12,402.115,396.075,402.16z"/>
		<path fill="#231F20" d="M396.21,401.98c-0.045,0-0.045,0-0.045-0.046c0,0.046-0.045,0.046-0.045,0.091c0.045,0,0.045,0,0.09,0
			V401.98z"/>
		<path fill="#231F20" d="M396.255,401.89c0-0.09-0.045-0.09-0.09-0.135C396.165,401.845,396.165,401.89,396.255,401.89z"/>
		<path fill="#231F20" d="M396.3,401.8c0-0.045,0.045-0.045,0.045-0.045c-0.045-0.045-0.045,0.045-0.09-0.045
			c0,0,0.045,0,0.045-0.045C396.21,401.71,396.255,401.845,396.3,401.8z"/>
		<path fill="#231F20" d="M396.3,402.07c0.045,0,0.09,0,0.09-0.09c-0.045,0-0.045,0-0.09,0
			C396.3,402.025,396.3,402.025,396.3,402.07z"/>
		<path fill="#231F20" d="M396.345,403.015c0,0-0.045,0.091,0,0.091C396.435,403.105,396.435,402.97,396.345,403.015z"/>
		<path fill="#231F20" d="M396.525,401.575c-0.135-0.045-0.225,0.135-0.09,0.135C396.435,401.71,396.48,401.62,396.525,401.575z"/>
		<path fill="#231F20" d="M396.435,402.745c0.045,0,0.045,0,0.09,0V402.7c-0.045,0-0.045,0-0.045-0.045
			C396.48,402.7,396.435,402.7,396.435,402.745z"/>
		<path fill="#231F20" d="M396.435,402.115c0.045,0,0.045,0.045,0.045,0.045c0-0.045,0.045-0.045,0.09-0.045
			c0-0.045,0-0.045,0.045-0.09C396.57,402.025,396.435,401.98,396.435,402.115z"/>
		<path fill="#231F20" d="M396.525,402.34c0.045,0.045,0.045,0,0.135,0c0-0.045,0-0.09-0.045-0.09
			C396.57,402.295,396.525,402.295,396.525,402.34z"/>
		<path fill="#231F20" d="M396.705,402.115C396.795,402.07,396.615,402.07,396.705,402.115L396.705,402.115z"/>
		<path fill="#231F20" d="M396.885,402.43c0-0.09,0-0.09,0.045-0.135c-0.09,0-0.135,0-0.18,0.045
			C396.795,402.385,396.795,402.43,396.885,402.43z"/>
		<path fill="#231F20" d="M396.84,401.935c0-0.045,0-0.09-0.045-0.09C396.75,401.89,396.795,401.935,396.84,401.935z"/>
		<path fill="#231F20" d="M396.885,401.935c0.09,0,0.09-0.045,0.135-0.09c-0.045-0.045-0.045,0-0.135,0
			C396.885,401.89,396.885,401.935,396.885,401.935z"/>
		<path fill="#231F20" d="M397.11,402.205C397.2,402.25,397.02,402.115,397.11,402.205L397.11,402.205z"/>
		<path fill="#231F20" d="M397.155,401.755c-0.045,0-0.045,0-0.045-0.045c0,0.045-0.045,0.045-0.045,0.09c0.045,0,0.045,0,0.09,0
			C397.155,401.8,397.155,401.8,397.155,401.755z"/>
		<path fill="#231F20" d="M397.2,402.385c0-0.045,0-0.045,0-0.09c-0.045,0-0.09,0-0.09,0.045
			C397.155,402.385,397.2,402.385,397.2,402.385z"/>
		<path fill="#231F20" d="M397.29,402.025c0.09-0.045,0.18-0.091,0.18-0.226C397.245,401.71,397.065,401.935,397.29,402.025z"/>
		<path fill="#231F20" d="M397.29,402.565h0.045v-0.046h-0.045C397.29,402.565,397.29,402.565,397.29,402.565z"/>
		<path fill="#231F20" d="M397.425,402.61c0,0.045-0.045,0.135,0.045,0.135c0-0.09,0.045-0.135,0.09-0.18
			C397.47,402.565,397.47,402.61,397.425,402.61z"/>
		<path fill="#231F20" d="M397.47,402.34c0-0.045,0.045-0.045,0.09-0.045c0-0.045-0.045-0.09-0.045-0.18
			C397.425,402.16,397.425,402.295,397.47,402.34z"/>
		<path fill="#231F20" d="M397.515,402.97c0-0.045,0.045-0.045,0.09-0.045v-0.045C397.56,402.79,397.425,402.925,397.515,402.97z"/>
		<path fill="#231F20" d="M397.695,401.62c-0.045,0-0.09,0-0.09,0v0.045c0.045,0,0.09,0,0.09,0V401.62z"/>
		<path fill="#231F20" d="M397.695,401.89C397.695,401.845,397.695,401.845,397.695,401.89c0.045-0.045,0.045-0.045,0.045-0.09
			C397.65,401.755,397.65,401.89,397.695,401.89z"/>
		<path fill="#231F20" d="M397.83,402.79c-0.045-0.045-0.045-0.045-0.09,0.045c0.045,0,0.045,0.045,0.09,0.045
			C397.83,402.835,397.83,402.79,397.83,402.79z"/>
		<path fill="#231F20" d="M397.785,402.025c0.045,0,0.045,0,0.09,0C397.875,401.935,397.74,401.935,397.785,402.025z"/>
		<path fill="#231F20" d="M397.785,403.6c0.09,0,0.045,0.045,0.09,0C397.92,403.51,397.785,403.51,397.785,403.6z"/>
		<path fill="#231F20" d="M397.83,402.52c0-0.09,0.09-0.045,0.09-0.135C397.83,402.295,397.74,402.52,397.83,402.52z"/>
		<path fill="#231F20" d="M397.83,401.89C397.92,401.935,397.785,401.8,397.83,401.89L397.83,401.89z"/>
		<path fill="#231F20" d="M397.83,403.69h0.045v-0.046h-0.045V403.69z"/>
		<path fill="#231F20" d="M397.83,402.79c0,0.045,0,0.135,0.045,0.135c0.045-0.045,0.18-0.09,0.09-0.135
			C397.965,402.835,397.92,402.745,397.83,402.79z"/>
		<path fill="#231F20" d="M398.01,401.935c-0.135-0.045-0.18,0.136-0.135,0.136C397.92,402.025,398.055,402.025,398.01,401.935z"/>
		<path fill="#231F20" d="M398.1,403.15c0.045-0.091-0.135-0.091-0.09,0C398.055,403.15,398.055,403.15,398.1,403.15z"/>
		<path fill="#231F20" d="M398.055,403.51c0.045,0,0.135,0,0.135-0.09c-0.045,0-0.09,0-0.09,0.045
			C398.19,403.42,398.01,403.465,398.055,403.51z"/>
		<path fill="#231F20" d="M398.055,402.88C398.145,402.835,397.965,402.79,398.055,402.88L398.055,402.88z"/>
		<path fill="#231F20" d="M398.055,402.115c0,0.045,0,0.09-0.045,0.09C398.145,402.25,398.19,402.115,398.055,402.115z"/>
		<path fill="#231F20" d="M398.1,402.925v0.045h0.045v-0.045H398.1z"/>
		<path fill="#231F20" d="M398.1,402.52C398.235,402.475,398.055,402.475,398.1,402.52L398.1,402.52z"/>
		<path fill="#231F20" d="M398.235,403.465c-0.045,0-0.045,0-0.09,0.045C398.235,403.51,398.235,403.51,398.235,403.465z"/>
		<path fill="#231F20" d="M398.19,402.25C398.28,402.295,398.145,402.16,398.19,402.25L398.19,402.25z"/>
		<path fill="#231F20" d="M398.19,402.07C398.28,402.025,398.1,402.025,398.19,402.07L398.19,402.07z"/>
		<path fill="#231F20" d="M398.19,402.52h0.045v-0.045h-0.045C398.19,402.475,398.19,402.475,398.19,402.52z"/>
		<path fill="#231F20" d="M398.37,402.07c0-0.045,0-0.045,0-0.09c-0.045,0-0.135-0.046-0.09,0.045
			C398.325,402.07,398.325,402.07,398.37,402.07z"/>
		<path fill="#231F20" d="M398.28,402.43c0.045,0,0.045,0,0.09,0C398.415,402.34,398.28,402.34,398.28,402.43z"/>
		<path fill="#231F20" d="M398.415,402.115C398.505,402.07,398.325,402.07,398.415,402.115L398.415,402.115z"/>
		<path fill="#231F20" d="M398.46,402.565c0-0.046,0-0.046-0.045-0.091C398.415,402.52,398.415,402.565,398.46,402.565z"/>
		<path fill="#231F20" d="M398.46,402.745c0-0.045,0-0.045-0.045-0.09C398.415,402.7,398.415,402.745,398.46,402.745z"/>
		<path fill="#231F20" d="M394.59,401.755C394.815,401.845,394.635,401.665,394.59,401.755L394.59,401.755z"/>
		<path fill="#231F20" d="M396.885,401.8c-0.045-0.045,0.045-0.135,0-0.135c0,0.045-0.09-0.045-0.09,0.045
			C396.75,401.755,396.795,401.8,396.885,401.8z"/>
		<path fill="#231F20" d="M397.38,403.51L397.38,403.51C397.335,403.6,397.38,403.555,397.38,403.51z"/>
		<path fill="#231F20" d="M397.695,401.98c0,0.045-0.09,0.045-0.045,0.09S397.74,401.935,397.695,401.98z"/>
		<path fill="#231F20" d="M397.785,402.16c0,0.045-0.045,0.045-0.09,0.045c0,0.045,0,0.09,0.09,0.09
			C397.74,402.25,397.83,402.16,397.785,402.16z"/>
		<path fill="#231F20" d="M397.83,401.755c-0.045,0-0.045-0.045-0.045-0.09c-0.045,0-0.09,0-0.09,0.045c0,0,0.045,0,0.045,0.045
			C397.785,401.71,397.83,401.8,397.83,401.755z"/>
		<path fill="#231F20" d="M395.85,410.305h-0.045c0,0.045-0.045,0.045-0.045,0.09h0.045
			C395.805,410.35,395.85,410.305,395.85,410.305z"/>
		<path fill="#231F20" d="M396.39,410.305c-0.045,0-0.09,0-0.09,0.045S396.39,410.395,396.39,410.305z"/>
		<path fill="#231F20" d="M397.965,410.44c0-0.046,0-0.046,0-0.091c-0.045,0-0.09,0-0.09,0.045
			C397.92,410.395,397.92,410.44,397.965,410.44z"/>
		<path fill="#231F20" d="M397.02,410.35h-0.045v0.045h0.045V410.35z"/>
		<path fill="#231F20" d="M397.785,410.44c0-0.091-0.045-0.046-0.09-0.091C397.695,410.44,397.74,410.44,397.785,410.44z"/>
		<path fill="#231F20" d="M395.94,410.35c0-0.045-0.045-0.045-0.045,0C395.895,410.35,395.94,410.395,395.94,410.35z"/>
		<path fill="#231F20" d="M398.37,410.44c0,0.045-0.09,0-0.045,0.09C398.37,410.575,398.415,410.44,398.37,410.44z"/>
		<path fill="#231F20" d="M397.65,410.44c-0.045,0-0.045-0.046-0.09-0.046C397.515,410.485,397.65,410.485,397.65,410.44z"/>
		<path fill="#231F20" d="M396.255,410.395c0,0-0.09,0-0.09,0.046C396.165,410.53,396.3,410.44,396.255,410.395z"/>
		<path fill="#231F20" d="M396.345,410.44C396.255,410.485,396.435,410.35,396.345,410.44L396.345,410.44z"/>
		<path fill="#231F20" d="M397.38,410.44c-0.045,0-0.045,0-0.09,0c0,0.045,0.045,0.09,0,0.18
			C397.47,410.62,397.335,410.53,397.38,410.44z"/>
		<path fill="#231F20" d="M396.3,410.485c0.045,0,0.09,0.045,0.135,0.045c0.045-0.045,0.045-0.136,0-0.136
			C396.39,410.53,396.345,410.44,396.3,410.485z"/>
		<path fill="#231F20" d="M397.92,410.485h-0.045v0.045h0.045V410.485z"/>
		<path fill="#231F20" d="M398.145,410.53c-0.045,0-0.045-0.045-0.09-0.045c0,0.045,0,0.045,0,0.09h0.045
			C398.1,410.53,398.145,410.53,398.145,410.53z"/>
		<path fill="#231F20" d="M395.76,410.44c0,0.045-0.045,0.045-0.045,0.09c0.045,0,0.09,0,0.09,0
			C395.805,410.485,395.805,410.44,395.76,410.44z"/>
		<path fill="#231F20" d="M397.875,410.575c-0.135,0.045-0.045-0.135-0.18-0.09c0.045,0.045,0.045,0.135,0.09,0.18
			C397.785,410.62,397.875,410.665,397.875,410.575z"/>
		<path fill="#231F20" d="M397.11,410.575c-0.045,0,0-0.045,0-0.045c-0.09,0-0.135,0.045-0.135,0.135
			C397.065,410.62,397.11,410.575,397.11,410.575z"/>
		<path fill="#231F20" d="M396.885,410.53c0,0.045-0.09,0.045-0.09,0.09C396.84,410.62,396.93,410.53,396.885,410.53z"/>
		<path fill="#231F20" d="M397.245,410.575H397.2v0.045h0.045C397.245,410.575,397.245,410.575,397.245,410.575z"/>
		<path fill="#231F20" d="M395.895,410.575c0-0.045-0.045-0.045-0.045,0C395.895,410.575,395.895,410.62,395.895,410.575z"/>
		<path fill="#231F20" d="M395.04,410.575c0-0.045-0.045-0.045-0.045,0C395.04,410.575,395.04,410.62,395.04,410.575z"/>
		<path fill="#231F20" d="M397.11,410.665L397.11,410.665c0.045-0.045,0-0.09-0.045-0.09
			C397.11,410.62,397.11,410.665,397.11,410.665z"/>
		<path fill="#231F20" d="M394.815,410.62c0-0.045-0.045-0.045-0.045,0C394.77,410.62,394.815,410.665,394.815,410.62z"/>
		<path fill="#231F20" d="M396.39,410.62c-0.045,0-0.09,0-0.09,0c0,0.045,0,0.09,0,0.135C396.39,410.8,396.39,410.71,396.39,410.62z
			"/>
		<path fill="#231F20" d="M396.66,410.665C396.75,410.755,396.75,410.575,396.66,410.665L396.66,410.665z"/>
		<path fill="#231F20" d="M396.03,410.665c0,0.045-0.045,0.045,0,0.09C396.03,410.71,396.075,410.71,396.03,410.665z"/>
		<path fill="#231F20" d="M397.11,410.755c-0.045-0.045-0.045,0-0.135,0c0,0.09,0.09,0.135,0.135,0.18
			C397.155,410.8,396.975,410.8,397.11,410.755z"/>
		<path fill="#231F20" d="M395.535,410.665c0,0.045,0,0.045-0.045,0.045c0.045,0,0.045,0.045,0.09,0.045
			C395.58,410.71,395.58,410.71,395.535,410.665z"/>
		<path fill="#231F20" d="M396.615,410.755c0.045,0,0.09,0,0.09-0.045C396.66,410.755,396.615,410.755,396.615,410.755z"/>
		<path fill="#231F20" d="M398.19,410.935c0-0.045,0.045-0.045,0.045-0.09c-0.045-0.045-0.09-0.045-0.135,0
			C398.1,410.935,398.145,410.935,398.19,410.935z"/>
		<path fill="#231F20" d="M397.875,410.89c0,0-0.225,0.045-0.18,0.136C397.785,411.115,397.83,410.98,397.875,410.89z"/>
		<path fill="#231F20" d="M397.56,410.89c0,0.045,0,0.045,0.045,0.091C397.605,410.935,397.605,410.89,397.56,410.89z"/>
		<path fill="#231F20" d="M396.795,410.89C396.705,410.935,396.84,411.025,396.795,410.89L396.795,410.89z"/>
		<path fill="#231F20" d="M397.38,411.07c0-0.045,0.045-0.045,0.045-0.09c-0.045-0.046-0.045,0-0.135,0
			C397.29,411.025,397.335,411.025,397.38,411.07z"/>
		<path fill="#231F20" d="M396.345,410.98h0.045v-0.046h-0.045C396.345,410.935,396.345,410.935,396.345,410.98z"/>
		<path fill="#231F20" d="M396.435,410.98C396.57,411.025,396.525,410.89,396.435,410.98L396.435,410.98z"/>
		<path fill="#231F20" d="M397.11,411.07C397.065,411.25,397.11,410.98,397.11,411.07L397.11,411.07z"/>
		<path fill="#231F20" d="M396.075,411.115v-0.045C396.03,410.98,395.985,411.115,396.075,411.115z"/>
		<path fill="#231F20" d="M396.39,411.07c-0.045,0-0.09,0-0.09,0.045C396.345,411.07,396.345,411.115,396.39,411.07z"/>
		<path fill="#231F20" d="M398.28,411.16C398.37,411.25,398.325,411.07,398.28,411.16L398.28,411.16z"/>
		<path fill="#231F20" d="M395.535,411.07c0.045,0,0,0.09,0.09,0.09C395.625,411.115,395.58,411.025,395.535,411.07z"/>
		<path fill="#231F20" d="M397.29,411.115C397.245,411.25,397.38,411.16,397.29,411.115L397.29,411.115z"/>
		<path fill="#231F20" d="M395.4,411.16C395.4,411.07,395.355,411.295,395.4,411.16L395.4,411.16z"/>
		<path fill="#231F20" d="M397.785,411.295C397.83,411.385,397.785,411.205,397.785,411.295L397.785,411.295z"/>
		<path fill="#231F20" d="M397.65,411.34v-0.045h-0.045v0.045H397.65z"/>
		<path fill="#231F20" d="M394.995,411.385h0.045v-0.045h-0.045C394.995,411.34,394.995,411.34,394.995,411.385z"/>
		<path fill="#231F20" d="M396.39,411.385c0.045,0,0.045,0.045,0.045,0H396.39z"/>
		<path fill="#231F20" d="M396.93,411.475C397.02,411.61,397.02,411.385,396.93,411.475L396.93,411.475z"/>
		<path fill="#231F20" d="M397.65,411.475v0.045c0.045,0,0.045,0,0.045,0.046C397.695,411.52,397.695,411.475,397.65,411.475z"/>
		<path fill="#231F20" d="M396.795,411.655h-0.045v0.045h0.045C396.795,411.7,396.795,411.7,396.795,411.655z"/>
		<path fill="#231F20" d="M397.83,411.745c0,0-0.09,0-0.09,0.045S397.875,411.79,397.83,411.745z"/>
		<path fill="#231F20" d="M396.885,411.79c0,0.045,0,0.045,0,0.09c0.045,0,0.045,0,0.09,0
			C396.975,411.79,396.975,411.79,396.885,411.79z"/>
		<path fill="#231F20" d="M398.28,411.925C398.28,411.925,398.28,411.97,398.28,411.925c-0.045,0.045-0.045,0.045-0.045,0.09
			C398.325,412.06,398.325,411.925,398.28,411.925z"/>
		<path fill="#231F20" d="M396.705,411.88v0.045c0.045,0,0.045,0,0.045,0.045C396.75,411.925,396.795,411.88,396.705,411.88z"/>
		<path fill="#231F20" d="M394.68,411.88h-0.045c0,0.045,0,0.045-0.045,0.045C394.635,411.925,394.68,411.925,394.68,411.88z"/>
		<path fill="#231F20" d="M394.545,412.06C394.545,412.105,394.545,412.105,394.545,412.06c-0.045,0.046-0.045,0.046-0.045,0.091
			C394.545,412.195,394.59,412.06,394.545,412.06z"/>
		<path fill="#231F20" d="M396.975,412.285C397.02,412.375,397.02,412.195,396.975,412.285L396.975,412.285z"/>
		<path fill="#231F20" d="M398.325,412.375C398.28,412.555,398.37,412.285,398.325,412.375L398.325,412.375z"/>
		<path fill="#231F20" d="M398.415,412.6c0-0.045,0-0.09-0.045-0.09C398.37,412.51,398.325,412.6,398.415,412.6z"/>
		<path fill="#231F20" d="M394.41,412.51C394.455,412.6,394.41,412.42,394.41,412.51L394.41,412.51z"/>
		<path fill="#231F20" d="M398.145,412.645c0.045,0,0.045,0.046,0.045,0C398.19,412.6,398.145,412.6,398.145,412.645z"/>
		<path fill="#231F20" d="M397.875,413.05C397.695,412.915,397.83,413.23,397.875,413.05L397.875,413.05z"/>
		<path fill="#231F20" d="M397.065,413.14c0.09,0.045,0.09-0.135,0.045-0.135C397.11,413.05,397.065,413.05,397.065,413.14z"/>
		<path fill="#231F20" d="M398.145,413.05C398.055,413.14,398.235,413.005,398.145,413.05L398.145,413.05z"/>
		<path fill="#231F20" d="M397.56,413.275c0.045,0,0.09,0,0.09-0.045c-0.045,0-0.045-0.046-0.09-0.046
			C397.605,413.185,397.56,413.23,397.56,413.275z"/>
		<path fill="#231F20" d="M397.29,413.185c0,0.046,0,0.091,0.045,0.091c0,0,0-0.045,0.045-0.045
			C397.335,413.185,397.335,413.185,397.29,413.185z"/>
		<path fill="#231F20" d="M397.92,413.365c-0.045,0.045-0.045,0.135,0.09,0.135C398.01,413.41,398.01,413.365,397.92,413.365z"/>
		<path fill="#231F20" d="M397.335,413.545c0,0.09,0.045,0.135,0.135,0.09c0-0.045,0-0.09,0-0.135
			C397.38,413.5,397.38,413.545,397.335,413.545z"/>
		<path fill="#231F20" d="M397.74,413.545C397.74,413.455,397.695,413.725,397.74,413.545L397.74,413.545z"/>
		<path fill="#231F20" d="M397.965,414.265h-0.045c0,0,0,0.045-0.045,0.045v0.046c0,0,0.045,0,0.045,0.045h0.045
			c0,0,0-0.045,0.045-0.045C398.01,414.355,398.01,414.31,397.965,414.265C397.965,414.31,397.965,414.31,397.965,414.265z"/>
		<path fill="#231F20" d="M394.32,417.01c0,0.045-0.045,0.045-0.045,0.09C394.365,417.19,394.365,417.01,394.32,417.01z"/>
		<path fill="#231F20" d="M395.985,417.46h-0.045v0.045h0.045C395.985,417.46,395.985,417.46,395.985,417.46z"/>
		<path fill="#231F20" d="M397.92,410.755c0.09,0,0.045,0.09,0.135,0.09c0-0.045,0-0.135-0.045-0.135
			C397.965,410.8,397.92,410.665,397.92,410.755z"/>
		<path fill="#231F20" d="M398.01,410.89c-0.045,0.045-0.09,0.091-0.18,0.045c-0.045,0.091,0.135,0.046,0.18,0.046
			C398.01,410.935,398.1,410.89,398.01,410.89z"/>
		<path fill="#231F20" d="M396.84,410.98C396.84,410.98,396.885,410.98,396.84,410.98c0,0.045,0,0.045,0.045,0.045
			S396.885,410.89,396.84,410.98z"/>
	</g>
</g>
<g id="Layer_2">
</g>
</svg>