<?xml version="1.0" encoding="utf-8"?>
<!-- Generator: Adobe Illustrator 16.0.0, SVG Export Plug-In . SVG Version: 6.00 Build 0)  -->
<!DOCTYPE svg PUBLIC "-//W3C//DTD SVG 1.1//EN" "http://www.w3.org/Graphics/SVG/1.1/DTD/svg11.dtd">
<svg version="1.1" id="Layer_1" xmlns="http://www.w3.org/2000/svg" xmlns:xlink="http://www.w3.org/1999/xlink" x="0px" y="0px"
	 width="100%" height="1em" viewBox="383.98 377.5 32.04 45" enable-background="new 383.98 377.5 32.04 45"
	 xml:space="preserve">
<g id="Layer_1_1_">
	<path fill="#231F20" d="M405.13,383.575h-16.875c-0.99,0-1.8-0.81-1.8-1.8c0-0.99,0.81-1.8,1.8-1.8h1.665v1.53h2.475V377.5h-4.14
		c-2.34,0-4.275,1.935-4.275,4.275c0,2.34,1.935,4.275,4.275,4.275h16.875c4.635,0,8.415,3.78,8.415,8.415
		c0,4.635-3.78,8.415-8.415,8.415h-6.75v-12.735h-2.475v12.735h-2.61v2.521h2.61v14.625h-4.185v2.475h10.845v-2.475h-4.186V405.4
		h6.75c6.03,0,10.89-4.905,10.89-10.891C416.02,388.525,411.16,383.575,405.13,383.575z"/>
</g>
<g id="Layer_2">
</g>
</svg>