<?xml version="1.0" encoding="utf-8"?>
<!-- Generator: Adobe Illustrator 16.0.0, SVG Export Plug-In . SVG Version: 6.00 Build 0)  -->
<!DOCTYPE svg PUBLIC "-//W3C//DTD SVG 1.1//EN" "http://www.w3.org/Graphics/SVG/1.1/DTD/svg11.dtd">
<svg version="1.1" id="Layer_1" xmlns="http://www.w3.org/2000/svg" xmlns:xlink="http://www.w3.org/1999/xlink" x="0px" y="0px"
	 width="" height="1em" viewBox="381.946 378.3 36.108 45" enable-background="new 381.946 378.3 36.108 45"
	 xml:space="preserve">
<g id="Layer_1_1_">
	<g>
		<path fill="#231F20" d="M406.557,378.3h-23.623c0,0,0,0-0.045,0s-0.09,0-0.135,0h-0.045c-0.045,0-0.09,0.045-0.18,0.045l0,0
			c0,0,0,0-0.045,0s-0.09,0.045-0.135,0.09c0,0-0.045,0-0.045,0.045c-0.045,0.045-0.045,0.045-0.09,0.09l-0.045,0.045
			c-0.045,0.045-0.09,0.09-0.09,0.135l0,0c0,0.045-0.045,0.09-0.045,0.135v0.045c0,0.045-0.045,0.09-0.045,0.135v0.045
			c0,0.045,0,0.134,0,0.179v7.276c0,0.539,0.449,0.988,0.988,0.988h3.413v4.536h-2.65c-0.404,0-0.763,0.225-0.898,0.628
			c-0.045,0.135-0.09,0.27-0.09,0.449c0,0.225,0.09,0.494,0.27,0.629l3.368,3.368v12.261h-3.458c-0.494,0-0.943,0.404-0.988,0.897
			l0,0c0,0.045,0,0.09,0,0.09v0.045v6.737v5.119c0,0.539,0.449,0.988,0.988,0.988h19.401l0,0l0,0c0.539,0,0.988-0.449,0.988-0.988
			c0-0.045,0-0.045,0-0.09v-11.856c0-0.538-0.449-0.987-0.988-0.987h-3.413v-8.039h7.635c6.332,0,11.497-5.165,11.497-11.497
			C418.054,383.464,412.889,378.3,406.557,378.3z M407.365,399.318c0.09-0.27,0.135-0.539,0.135-0.854
			c0-1.527-1.258-2.829-2.829-2.829h-6.737h-3.638c-0.404,0-0.764,0.225-0.898,0.628c-0.135,0.359-0.09,0.809,0.225,1.078
			l3.323,3.323v9.655c0,0.539,0.449,0.988,0.988,0.988h3.413v8.488l-3.413-3.413c-0.18-0.18-0.449-0.27-0.719-0.27h-7.186
			l-4.761-4.761h1.617l3.369,3.368c0.18,0.18,0.449,0.27,0.718,0.27c0.135,0,0.27-0.045,0.359-0.09
			c0.359-0.135,0.629-0.494,0.629-0.898v-31.077c0-0.539-0.449-0.988-0.988-0.988h-3.997l-1.662-1.662h21.243
			c5.255,0,9.521,4.267,9.521,9.521C416.078,394.782,412.261,398.869,407.365,399.318z"/>
		<path fill="#231F20" d="M406.602,381.938h-8.667h-3.638c-0.404,0-0.764,0.225-0.898,0.629c-0.135,0.359-0.09,0.808,0.225,1.078
			l3.323,3.323v6.108c0,0.539,0.449,0.988,0.988,0.988h8.623c0.629,0,1.258-0.135,1.797-0.404c0.135,0.27,0.314,0.494,0.493,0.718
			l0.045,0.045c0.539,0.539,1.213,0.809,1.977,0.809c0.943,0,1.796-0.494,2.335-1.257c0.809-1.258,1.213-2.695,1.213-4.177
			C414.416,385.44,410.913,381.938,406.602,381.938z M398.922,392.087v-4.536h7.635c1.258,0,2.29,1.033,2.29,2.246c0,0,0,0,0,0.045
			c0,0.09,0,0.18,0,0.225s0,0.09,0,0.135s0,0.09-0.045,0.135c0,0.045,0,0.09-0.045,0.134c0,0.045,0,0.045-0.045,0.09
			c-0.044,0.09-0.09,0.225-0.135,0.314c0,0,0,0,0,0.045c-0.403,0.719-1.122,1.168-1.976,1.168H398.922z"/>
	</g>
</g>
<g id="Layer_2">
</g>
</svg>