<?xml version="1.0" encoding="utf-8"?>
<!-- Generator: Adobe Illustrator 16.0.0, SVG Export Plug-In . SVG Version: 6.00 Build 0)  -->
<!DOCTYPE svg PUBLIC "-//W3C//DTD SVG 1.1//EN" "http://www.w3.org/Graphics/SVG/1.1/DTD/svg11.dtd">
<svg version="1.1" id="Layer_1" xmlns="http://www.w3.org/2000/svg" xmlns:xlink="http://www.w3.org/1999/xlink" x="0px" y="0px"
	 width="" height="1em" viewBox="382.882 377.5 33.435 45" enable-background="new 382.882 377.5 33.435 45"
	 xml:space="preserve">
<g id="Layer_1_1_">
	<path fill="#231F20" d="M389.587,422.5c-3.69,0-6.705-3.015-6.705-6.705v-28.08h0.855v28.08c0,3.24,2.61,5.85,5.85,5.85
		c3.24,0,5.85-2.609,5.85-5.85v-19.8c-5.4-1.035-9.495-5.76-9.495-11.475v-1.845c0-2.835,2.34-5.175,5.175-5.175
		s5.175,2.34,5.175,5.175v12.6c0.45,0.045,0.855,0.09,1.305,0.09h13.411c2.475,0,4.454-1.98,4.454-4.455
		c0-2.475-1.979-4.455-4.454-4.455h-6.57V385.6h6.57c2.925,0,5.31,2.385,5.31,5.31c0,2.925-2.385,5.31-5.31,5.31h-13.365
		c-0.45,0-0.9-0.045-1.305-0.09v19.665C396.292,419.485,393.322,422.5,389.587,422.5z M391.117,378.355
		c-2.385,0-4.32,1.935-4.32,4.32v1.845c0,5.22,3.69,9.585,8.64,10.575v-12.42C395.438,380.29,393.502,378.355,391.117,378.355z"/>
</g>
<g id="Layer_2">
</g>
</svg>